<svg xmlns="http://www.w3.org/2000/svg" xmlns:xlink="http://www.w3.org/1999/xlink" width="404" height="30" viewBox="0 0 404 30" fill="none"><g opacity="1"  transform="translate(0 0)  rotate(0)"><path id="形状 31" fill-rule="evenodd" style="fill:#FFFFFF" opacity="0" d="M0,0zM0,0h335l69,30h-404z"></path><path  id="形状 31" style="fill:#00CCFF; opacity:0.79;" d="M0,29h404v1l-0.399,0.9171l-69,-30.00003l0.399,-0.91707v1h-335v-1h1v30h-1zM0,31c-0.06566,0 -0.13069,-0.0064 -0.19509,-0.0192c-0.0644,-0.0128 -0.12693,-0.03177 -0.18759,-0.0569c-0.06066,-0.02513 -0.11829,-0.05593 -0.17289,-0.0924c-0.0546,-0.03653 -0.10511,-0.078 -0.15154,-0.1244c-0.04643,-0.0464 -0.08788,-0.0969 -0.12436,-0.1515c-0.03648,-0.0546 -0.06728,-0.11223 -0.09241,-0.1729c-0.02513,-0.06067 -0.0441,-0.1232 -0.05691,-0.1876c-0.01281,-0.0644 -0.01921,-0.12943 -0.01921,-0.1951v-30c0,-0.06566 0.0064,-0.13069 0.01921,-0.19509c0.01281,-0.0644 0.03178,-0.12693 0.05691,-0.18759c0.02513,-0.06066 0.05593,-0.11829 0.09241,-0.17289c0.03648,-0.0546 0.07793,-0.10511 0.12436,-0.15154c0.04643,-0.04643 0.09694,-0.08788 0.15154,-0.12436c0.05459,-0.03648 0.11222,-0.06728 0.17289,-0.09241c0.06066,-0.02513 0.12319,-0.0441 0.18759,-0.05691c0.0644,-0.01281 0.12943,-0.01921 0.19509,-0.01921h335c0.13867,0 0.27167,0.02764 0.399,0.08293l69,29.99997c0.044,0.01933 0.08667,0.04177 0.128,0.0673c0.04133,0.02553 0.08033,0.0539 0.117,0.0851c0.03733,0.03127 0.072,0.06503 0.104,0.1013c0.032,0.0362 0.06133,0.07457 0.088,0.1151c0.02667,0.04053 0.05033,0.08277 0.071,0.1267c0.02,0.04393 0.037,0.0891 0.051,0.1355c0.014,0.0464 0.02467,0.09357 0.032,0.1415c0.00667,0.04793 0.01,0.09613 0.01,0.1446c0,0.06567 -0.00633,0.1307 -0.019,0.1951c-0.01267,0.0644 -0.03167,0.12693 -0.057,0.1876c-0.02533,0.06067 -0.05633,0.1183 -0.093,0.1729c-0.036,0.0546 -0.07733,0.1051 -0.124,0.1515c-0.04667,0.0464 -0.097,0.08787 -0.151,0.1244c-0.05467,0.03647 -0.11233,0.06727 -0.173,0.0924c-0.06067,0.02513 -0.12333,0.0441 -0.188,0.0569c-0.06467,0.0128 -0.12967,0.0192 -0.195,0.0192z"></path><path id="矩形 4" fill-rule="evenodd" style="fill:#00CCFF" opacity="1" d="M319,9zM319,9h14l35,14h-14z"></path><path id="矩形 4 拷贝" fill-rule="evenodd" style="fill:#00CCFF" opacity="0.8" d="M289,9zM289,9h14l35,14h-14z"></path><path id="矩形 4 拷贝 2" fill-rule="evenodd" style="fill:#00CCFF" opacity="0.6" d="M259,9zM259,9h14l35,14h-14z"></path><path id="椭圆 15" fill-rule="evenodd" style="fill:#00CCFF" opacity="0.6" d="M7 5C5.9 5 5 5.9 5 7C5 8.1 5.9 9 7 9C8.1 9 9 8.1 9 7C9 5.9 8.1 5 7 5Z"></path><path id="椭圆 15 拷贝" fill-rule="evenodd" style="fill:#00CCFF" opacity="0.6" d="M7 21C5.9 21 5 21.9 5 23C5 24.1 5.9 25 7 25C8.1 25 9 24.1 9 23C9 21.9 8.1 21 7 21Z"></path></g></svg>