<svg xmlns="http://www.w3.org/2000/svg" xmlns:xlink="http://www.w3.org/1999/xlink" width="1126" height="75" viewBox="0 0 1126 75" fill="none"><path id="形状 85 拷贝 2" fill-rule="evenodd" fill="url(#linear_0)" opacity="1" d="M97.97,45l-97.97,-45l563,2l563,-2l-97.97,45h-171.03l-66,30h-456l-66,-30z"></path><path  id="形状 85 拷贝 2" style="fill:#00CCFF; opacity:1;" d="M270.655,41.3585l66,30l-1.655,3.6415v-4h456v4l-1.655,-3.6415l66,-30c0.26,-0.11813 0.52933,-0.2074 0.808,-0.2678c0.27933,-0.06047 0.56167,-0.0907 0.847,-0.0907h171.03v4l-1.67,-3.6349l97.97,-44.99999l1.67,3.63489l0.01,3.99997l-562.996,2l-563.02821,-2l0.01421,-3.99997l1.6696,-3.63489l97.97,44.99999l-1.6696,3.6349v-4h171.03c0.28533,0 0.56767,0.03023 0.847,0.0907c0.27867,0.0604 0.548,0.14967 0.808,0.2678zM267.345,48.6415l1.655,-3.6415v4h-171.03c-0.28813,0 -0.57297,-0.03077 -0.8545,-0.0923c-0.28153,-0.0616 -0.55323,-0.15253 -0.8151,-0.2728l-97.97,-45.00001c-0.17352,-0.0797 -0.34048,-0.17136 -0.50088,-0.27497c-0.16039,-0.10362 -0.31259,-0.21813 -0.45659,-0.34354c-0.14399,-0.12541 -0.27832,-0.26045 -0.40298,-0.4051c-0.12466,-0.14465 -0.23838,-0.29744 -0.34115,-0.45837c-0.10277,-0.16094 -0.19356,-0.32838 -0.27236,-0.50231c-0.07879,-0.17394 -0.1448,-0.3526 -0.19801,-0.53599c-0.05321,-0.18339 -0.09308,-0.36964 -0.11962,-0.55874c-0.02653,-0.1891 -0.03946,-0.37913 -0.03878,-0.57008c0.00046,-0.131 0.00734,-0.26167 0.02065,-0.392c0.0133,-0.13033 0.03296,-0.25969 0.05898,-0.38809c0.02601,-0.1284 0.05826,-0.25521 0.09673,-0.38044c0.03847,-0.12523 0.08299,-0.24827 0.13355,-0.36912c0.05057,-0.12085 0.10693,-0.23894 0.1691,-0.35426c0.06216,-0.11531 0.12983,-0.2273 0.203,-0.33597c0.07317,-0.10867 0.15148,-0.21349 0.23495,-0.31446c0.08347,-0.10097 0.17168,-0.19761 0.26465,-0.28992c0.09296,-0.0923 0.19022,-0.17983 0.29179,-0.26258c0.10156,-0.08275 0.20693,-0.16032 0.31612,-0.23271c0.10918,-0.07239 0.22165,-0.13926 0.33741,-0.20061c0.11575,-0.06135 0.23423,-0.11687 0.35544,-0.16657c0.12121,-0.04971 0.24457,-0.09335 0.37007,-0.13093c0.1255,-0.03759 0.25253,-0.06893 0.38111,-0.09403c0.12858,-0.0251 0.25808,-0.04384 0.3885,-0.05622c0.13042,-0.01237 0.26113,-0.01833 0.39213,-0.01786l562.97179,2l563.004,-2c0.18667,-0.00068 0.37667,0.01225 0.57,0.03878c0.18667,0.02654 0.37,0.06641 0.55,0.11962c0.18667,0.05321 0.36667,0.11922 0.54,0.19801c0.17333,0.0788 0.34,0.16959 0.5,0.27236c0.16,0.10277 0.31333,0.21649 0.46,0.34115c0.14667,0.12466 0.28333,0.25899 0.41,0.40298c0.12,0.144 0.23333,0.2962 0.34,0.45659c0.10667,0.1604 0.19667,0.32736 0.27,0.50088c0.06,0.11905 0.11,0.2405 0.15,0.36433c0.04667,0.12383 0.08333,0.24946 0.11,0.37689c0.03333,0.12743 0.05667,0.25604 0.07,0.38583c0.02,0.12979 0.03333,0.26015 0.04,0.39106c0,0.13091 -0.00333,0.26175 -0.01,0.39252c-0.00667,0.13077 -0.02,0.26083 -0.04,0.3902c-0.02,0.12936 -0.04667,0.2574 -0.08,0.38412c-0.03333,0.12671 -0.07333,0.25149 -0.12,0.37434c-0.04667,0.12284 -0.09667,0.24316 -0.15,0.36095c-0.06,0.11779 -0.12333,0.23249 -0.19,0.3441c-0.07333,0.1116 -0.14667,0.21957 -0.22,0.32392c-0.08,0.10434 -0.16667,0.20455 -0.26,0.30063c-0.08667,0.09607 -0.18,0.18755 -0.28,0.27444c-0.09333,0.08688 -0.19333,0.16875 -0.3,0.24561c-0.10667,0.07685 -0.21667,0.14832 -0.33,0.21441c-0.11333,0.06609 -0.23,0.12647 -0.35,0.18115l-97.97,45.00001c-0.26,0.12027 -0.53333,0.2112 -0.82,0.2728c-0.28,0.06153 -0.56333,0.0923 -0.85,0.0923h-171.03v-4l1.655,3.6415l-66,30c-0.26,0.11813 -0.52933,0.2074 -0.808,0.2678c-0.27933,0.06047 -0.56167,0.0907 -0.847,0.0907h-456c-0.28533,0 -0.56767,-0.03023 -0.847,-0.0907c-0.27867,-0.0604 -0.548,-0.14967 -0.808,-0.2678z"></path><defs><linearGradient id="linear_0" x1="0%" y1="50%" x2="100%" y2="50%" gradientUnits="objectBoundingBox"><stop offset="0" stop-color="#0E1931" stop-opacity="0" /><stop offset="0.1064453125" stop-color="#0E1931" stop-opacity="0" /><stop offset="0.50537109375" stop-color="#293654" stop-opacity="0" /><stop offset="0.904296875" stop-color="#0E1931" stop-opacity="0" /><stop offset="1" stop-color="#0E1931" stop-opacity="0" /></linearGradient></defs></svg>