<svg xmlns="http://www.w3.org/2000/svg" xmlns:xlink="http://www.w3.org/1999/xlink" width="404" height="30" viewBox="0 0 404 30" fill="none"><g opacity="1"  transform="translate(0 0)  rotate(0)"><path id="形状 31" fill-rule="evenodd" style="fill:#FFFFFF" opacity="0" d="M404,0zM69,0h335v30h-404z"></path><path  id="形状 31" style="fill:#00CCFF; opacity:0.79;" d="M0,29h404v1h-1v-30h1v1h-335v-1l0.3987,0.91707l-68.99997,30.00003l-0.39873,-0.9171zM0,31c-0.04845,0 -0.09664,-0.0035 -0.14457,-0.0105c-0.04794,-0.007 -0.09512,-0.01743 -0.14154,-0.0313c-0.04642,-0.01387 -0.0916,-0.031 -0.13553,-0.0514c-0.04393,-0.02047 -0.08615,-0.04397 -0.12667,-0.0705c-0.04051,-0.0266 -0.0789,-0.05597 -0.11514,-0.0881c-0.03625,-0.03213 -0.06998,-0.06673 -0.1012,-0.1038c-0.03122,-0.037 -0.0596,-0.0761 -0.08514,-0.1173c-0.02554,-0.04113 -0.04796,-0.08393 -0.06728,-0.1284c-0.02618,-0.0602 -0.04624,-0.1224 -0.06017,-0.1866c-0.01393,-0.06413 -0.02147,-0.12903 -0.02261,-0.1947c-0.00114,-0.06567 0.00413,-0.1308 0.01581,-0.1954c0.01169,-0.0646 0.02956,-0.12743 0.05363,-0.1885c0.02407,-0.06113 0.05386,-0.1193 0.08938,-0.1745c0.03552,-0.0552 0.07609,-0.10643 0.1217,-0.1537c0.04561,-0.0472 0.09539,-0.08953 0.14935,-0.127c0.05395,-0.0374 0.11103,-0.0692 0.17125,-0.0954l69.00003,-29.99997c0.12713,-0.05529 0.26003,-0.08293 0.3987,-0.08293h335c0.06533,0 0.13033,0.0064 0.195,0.01921c0.06467,0.01281 0.12733,0.03178 0.188,0.05691c0.06067,0.02513 0.118,0.05593 0.172,0.09241c0.05467,0.03648 0.10533,0.07793 0.152,0.12436c0.04667,0.04643 0.088,0.09694 0.124,0.15154c0.03667,0.05459 0.06767,0.11222 0.093,0.17289c0.02533,0.06066 0.04433,0.12319 0.057,0.18759c0.01267,0.0644 0.019,0.12943 0.019,0.19509v30c0,0.06567 -0.00633,0.1307 -0.019,0.1951c-0.01267,0.0644 -0.03167,0.12693 -0.057,0.1876c-0.02533,0.06067 -0.05633,0.1183 -0.093,0.1729c-0.036,0.0546 -0.07733,0.1051 -0.124,0.1515c-0.04667,0.0464 -0.097,0.08787 -0.151,0.1244c-0.05467,0.03647 -0.11233,0.06727 -0.173,0.0924c-0.06067,0.02513 -0.12333,0.0441 -0.188,0.0569c-0.06467,0.0128 -0.12967,0.0192 -0.195,0.0192z"></path><path id="矩形 4" fill-rule="evenodd" style="fill:#00CCFF" opacity="1" d="M85,9zM71,9h14l-35,14h-14z"></path><path id="矩形 4 拷贝" fill-rule="evenodd" style="fill:#00CCFF" opacity="0.8" d="M115,9zM101,9h14l-35,14h-14z"></path><path id="矩形 4 拷贝 2" fill-rule="evenodd" style="fill:#00CCFF" opacity="0.6" d="M145,9zM131,9h14l-35,14h-14z"></path><path id="椭圆 15" fill-rule="evenodd" style="fill:#00CCFF" opacity="0.6" d="M397 5C395.9 5 395 5.9 395 7C395 8.1 395.9 9 397 9C398.1 9 399 8.1 399 7C399 5.9 398.1 5 397 5Z"></path><path id="椭圆 15 拷贝" fill-rule="evenodd" style="fill:#00CCFF" opacity="0.6" d="M397 21C395.9 21 395 21.9 395 23C395 24.1 395.9 25 397 25C398.1 25 399 24.1 399 23C399 21.9 398.1 21 397 21Z"></path></g></svg>