<svg xmlns="http://www.w3.org/2000/svg" xmlns:xlink="http://www.w3.org/1999/xlink" width="1126" height="75" viewBox="0 0 1126 75" fill="none"><path id="拼合图形" fill-rule="evenodd" style="fill:#00CCFF" opacity="1" d="M1028.03,45h-171.03l-66,30h-456l-66,-30h-171.03l-97.97,-45l9.66,0.03l553.34,1.97l553.34,-1.97l9.66,-0.03l-8.78,4.03zM856.15,41.09c0.28,-0.06 0.56,-0.09 0.85,-0.09h170.16l80.41,-36.93l-544.56,1.93l-544.58,-1.93l80.41,36.93h170.16c0.29,0 0.57,0.03 0.85,0.09c0.28,0.06 0.55,0.15 0.8,0.27l65.22,29.64h454.26l65.21,-29.64c0.27,-0.12 0.53,-0.21 0.81,-0.27zM183,18c3.31,0 6,2.69 6,6c0,3.31 -2.69,6 -6,6c-3.31,0 -6,-2.69 -6,-6c0,-3.31 2.69,-6 6,-6zM948,18c3.31,0 6,2.69 6,6c0,3.31 -2.69,6 -6,6c-3.31,0 -6,-2.69 -6,-6c0,-3.31 2.69,-6 6,-6zM161,19c2.76,0 5,2.24 5,5c0,2.76 -2.24,5 -5,5c-2.76,0 -5,-2.24 -5,-5c0,-2.76 2.24,-5 5,-5zM970,19c2.76,0 5,2.24 5,5c0,2.76 -2.24,5 -5,5c-2.76,0 -5,-2.24 -5,-5c0,-2.76 2.24,-5 5,-5zM139,20c2.21,0 4,1.79 4,4c0,2.21 -1.79,4 -4,4c-2.21,0 -4,-1.79 -4,-4c0,-2.21 1.79,-4 4,-4zM992,20c2.21,0 4,1.79 4,4c0,2.21 -1.79,4 -4,4c-2.21,0 -4,-1.79 -4,-4c0,-2.21 1.79,-4 4,-4zM117,21c1.66,0 3,1.34 3,3c0,1.66 -1.34,3 -3,3c-1.66,0 -3,-1.34 -3,-3c0,-1.66 1.34,-3 3,-3zM1011,24c0,-1.66 1.34,-3 3,-3c1.66,0 3,1.34 3,3c0,1.66 -1.34,3 -3,3c-1.66,0 -3,-1.34 -3,-3z"></path></svg>