<svg xmlns="http://www.w3.org/2000/svg" xmlns:xlink="http://www.w3.org/1999/xlink" width="110" height="56" viewBox="0 0 110 56" fill="none"><g opacity="1"  transform="translate(0 0)  rotate(0)"><path  id="椭圆 16" style="fill:#23DBFC; opacity:1;" d="M55,1c-7.3896,0 -14.4562,0.72617 -21.1998,2.17852c-3.2354,0.69681 -6.31133,1.54684 -9.2278,2.5501c-2.88187,0.99134 -5.55227,2.11301 -8.0112,3.36501c-2.44827,1.24658 -4.63738,2.59714 -6.56735,4.05167c-1.93355,1.4572 -3.56792,2.98937 -4.9031,4.5965c-1.34353,1.61727 -2.35876,3.28037 -3.04568,4.9893c-0.69672,1.73333 -1.04507,3.48963 -1.04507,5.2689c0,1.77927 0.34836,3.53557 1.04508,5.2689c0.68692,1.70893 1.70214,3.37203 3.04567,4.9893c1.33517,1.60713 2.96954,3.1393 4.9031,4.5965c1.92997,1.45453 4.11908,2.8051 6.56735,4.0517c2.45893,1.252 5.12933,2.37367 8.0112,3.365c2.91647,1.00327 5.9924,1.8533 9.2278,2.5501c6.7436,1.45233 13.8102,2.1785 21.1998,2.1785c7.3896,0 14.4562,-0.72617 21.1998,-2.1785c3.2354,-0.6968 6.31133,-1.54683 9.2278,-2.5501c2.88187,-0.99133 5.55227,-2.113 8.0112,-3.365c2.44827,-1.2466 4.63733,-2.59717 6.5672,-4.0517c1.93333,-1.4572 3.56767,-2.98937 4.903,-4.5965c1.344,-1.61727 2.35933,-3.28037 3.046,-4.9893c0.69667,-1.73333 1.045,-3.48963 1.045,-5.2689c0,-1.77927 -0.34833,-3.53557 -1.045,-5.2689c-0.68667,-1.70893 -1.702,-3.37203 -3.046,-4.9893c-1.33467,-1.60713 -2.969,-3.1393 -4.903,-4.5965c-1.92987,-1.45453 -4.11893,-2.80509 -6.5672,-4.05167c-2.459,-1.25202 -5.12937,-2.37369 -8.0111,-3.36501c-2.91653,-1.00326 -5.9925,-1.85329 -9.2279,-2.5501c-6.7436,-1.45235 -13.8102,-2.17852 -21.1998,-2.17852zM55,-1c7.5316,0 14.73857,0.74112 21.6209,2.22335c3.31313,0.71355 6.46557,1.5849 9.4573,2.61404c2.96993,1.02165 5.72593,2.17964 8.268,3.47397c2.55247,1.29963 4.8404,2.71188 6.8638,4.23674c2.05733,1.5506 3.80333,3.18917 5.238,4.9157c1.47667,1.77807 2.59767,3.61853 3.363,5.5214c0.79267,1.97267 1.189,3.9776 1.189,6.0148c0,2.03713 -0.39633,4.04207 -1.189,6.0148c-0.76533,1.90293 -1.88633,3.7434 -3.363,5.5214c-1.43467,1.72653 -3.18067,3.3651 -5.238,4.9157c-2.0234,1.52487 -4.31133,2.9371 -6.8638,4.2367c-2.542,1.29433 -5.298,2.45233 -8.268,3.474c-2.99173,1.02913 -6.1442,1.90047 -9.4574,2.614c-6.88227,1.48227 -14.0892,2.2234 -21.6208,2.2234c-7.5316,0 -14.73857,-0.74113 -21.6209,-2.2234c-3.31313,-0.71353 -6.46557,-1.58487 -9.4573,-2.614c-2.97,-1.02167 -5.726,-2.17967 -8.268,-3.474c-2.55247,-1.2996 -4.84036,-2.71183 -6.86367,-4.2367c-2.05749,-1.5506 -3.80341,-3.18917 -5.23776,-4.9157c-1.47711,-1.778 -2.59811,-3.61847 -3.36299,-5.5214c-0.79292,-1.97267 -1.18937,-3.9776 -1.18937,-6.0148c0,-2.0372 0.39646,-4.04213 1.18937,-6.0148c0.76489,-1.90293 1.88589,-3.7434 3.363,-5.5214c1.43435,-1.72653 3.18027,-3.3651 5.23776,-4.9157c2.02331,-1.52487 4.3112,-2.93712 6.86367,-4.23674c2.542,-1.29431 5.298,-2.4523 8.268,-3.47397c2.99173,-1.02914 6.14417,-1.90049 9.4573,-2.61404c6.88233,-1.48223 14.0893,-2.22335 21.6209,-2.22335z"></path><path  id="椭圆 4" style="fill:#23DBFC; opacity:1;" d="M55.0401,6.20999c-6.18167,0 -12.08587,0.60713 -17.7126,1.8214c-2.68213,0.57881 -5.22807,1.28351 -7.6378,2.11411c-2.3594,0.81333 -4.53953,1.73043 -6.5404,2.7513c-1.95873,0.9994 -3.70137,2.0755 -5.2279,3.2283c-1.48193,1.1192 -2.72397,2.2832 -3.7261,3.492c-1.88347,2.27193 -2.8252,4.57623 -2.8252,6.9129c0,2.33667 0.94173,4.64097 2.8252,6.9129c1.00213,1.2088 2.24417,2.3728 3.7261,3.492c1.52647,1.1528 3.2691,2.2289 5.2279,3.2283c2.00087,1.02087 4.181,1.93797 6.5404,2.7513c2.40973,0.8306 4.95567,1.5353 7.6378,2.1141c5.62673,1.21427 11.53093,1.8214 17.7126,1.8214c6.18167,0 12.08587,-0.60713 17.7126,-1.8214c2.68213,-0.5788 5.22807,-1.2835 7.6378,-2.1141c2.3594,-0.81333 4.53953,-1.73043 6.5404,-2.7513c1.9588,-0.9994 3.70147,-2.0755 5.228,-3.2283c1.48187,-1.1192 2.72387,-2.2832 3.726,-3.492c1.88347,-2.27193 2.8252,-4.57623 2.8252,-6.9129c0,-2.33667 -0.94173,-4.64097 -2.8252,-6.9129c-1.00213,-1.2088 -2.24413,-2.3728 -3.726,-3.492c-1.52653,-1.1528 -3.2692,-2.2289 -5.228,-3.2283c-2.00087,-1.02087 -4.181,-1.93797 -6.5404,-2.7513c-2.40973,-0.8306 -4.95567,-1.5353 -7.6378,-2.11411c-5.62673,-1.21427 -11.53093,-1.8214 -17.7126,-1.8214zM55.0401,-1.79001c6.7506,0 13.21733,0.66714 19.4002,2.00142c6.04293,1.30407 11.41843,3.15718 16.1265,5.5593c2.3756,1.21208 4.51337,2.53556 6.4133,3.97043c1.9774,1.49331 3.66537,3.08336 5.0639,4.77016c1.48867,1.79613 2.62533,3.6724 3.41,5.6288c0.83733,2.08747 1.256,4.21743 1.256,6.3899c0,2.17247 -0.41867,4.30243 -1.256,6.3899c-0.78467,1.9564 -1.92133,3.83263 -3.41,5.6287c-1.39853,1.6868 -3.0865,3.27687 -5.0639,4.7702c-1.89993,1.43493 -4.0377,2.75843 -6.4133,3.9705c-4.70807,2.40213 -10.08357,4.25523 -16.1265,5.5593c-6.18287,1.33427 -12.6496,2.0014 -19.4002,2.0014c-6.7506,0 -13.21733,-0.66713 -19.4002,-2.0014c-6.04287,-1.30407 -11.41833,-3.15717 -16.1264,-5.5593c-2.3756,-1.21207 -4.5134,-2.53557 -6.4134,-3.9705c-1.9774,-1.49333 -3.66527,-3.0834 -5.06362,-4.7702c-1.48899,-1.79607 -2.62583,-3.6723 -3.4105,-5.6287c-0.83724,-2.08747 -1.25586,-4.21743 -1.25586,-6.3899c0,-2.17247 0.41862,-4.30243 1.25586,-6.3899c0.78468,-1.9564 1.92151,-3.83267 3.4105,-5.6288c1.39835,-1.6868 3.08622,-3.27685 5.06362,-4.77016c1.89993,-1.43488 4.03773,-2.75836 6.4134,-3.97043c4.708,-2.40213 10.08347,-4.25523 16.1264,-5.5593c6.18287,-1.33428 12.6496,-2.00142 19.4002,-2.00142z"></path><g opacity="0.1"  transform="translate(7.439453125 4.839996337890625)  rotate(0)"><path id="椭圆 4 拷贝" fill-rule="evenodd" style="fill:#23DBFC" opacity="1" d="M47.56 0C21.29 0 0 9.75 0 21.77C0 33.79 21.29 43.54 47.56 43.54C73.83 43.54 95.12 33.79 95.12 21.77C95.12 9.75 73.83 0 47.56 0Z"></path><path id="Gradient Overlay" fill-rule="evenodd" fill="url(#linear_0)" opacity="1" d="M95.12,21.77c0,12.02 -21.29,21.77 -47.56,21.77c-26.27,0 -47.56,-9.75 -47.56,-21.77c0,-12.02 21.29,-21.77 47.56,-21.77c26.27,0 47.56,9.75 47.56,21.77z"></path></g><path id="椭圆 4 拷贝 2" fill-rule="evenodd" style="fill:#160605" opacity="0" d="M54.5902 8.23999C34.4902 8.23999 18.2002 15.98 18.2002 25.53C18.2002 35.08 34.4902 42.82 54.5902 42.82C74.6902 42.82 90.9802 35.08 90.9802 25.53C90.9802 15.98 74.6902 8.23999 54.5902 8.23999Z"></path><path  id="椭圆 4 拷贝 2" style="fill:#23DBFC; opacity:1;" d="M44.8975,16.9372c-0.65213,0.0968 -1.2964,0.20337 -1.9328,0.3197l-2.8767,-15.73926c0.81173,-0.14837 1.6318,-0.28404 2.4602,-0.40701zM35.9996,19.0374c-0.6304,0.21453 -1.24027,0.43933 -1.8296,0.6744l-5.9274,-14.86161c0.84447,-0.3368 1.7119,-0.65671 2.6023,-0.95972zM28.6537,22.6691c-0.40873,0.3052 -0.77507,0.61077 -1.099,0.9167l-10.9871,-11.6311c0.77267,-0.72987 1.61073,-1.43206 2.5142,-2.10658zM26.201,25.5051c-0.00053,0.0082 -0.0008,0.0165 -0.0008,0.0249c0,0.029 0.0037,0.0609 0.0111,0.0957l-15.6487,3.3342c-0.2416,-1.13387 -0.3624,-2.27717 -0.3624,-3.4299c0,-0.3554 0.01153,-0.71037 0.0346,-1.0649zM28.093,27.9499c0.37373,0.3104 0.78753,0.61773 1.2414,0.922l-8.91,13.2896c-0.90813,-0.60887 -1.75943,-1.2432 -2.5539,-1.903zM35.1218,31.7123c0.60753,0.22293 1.23393,0.43527 1.8792,0.637l-4.7734,15.2713c-0.89333,-0.2792 -1.76577,-0.57503 -2.6173,-0.8875zM43.9824,33.9797c0.649,0.10667 1.30527,0.20337 1.9688,0.2901l-2.0734,15.8651c-0.83787,-0.10953 -1.6681,-0.2319 -2.4907,-0.3671zM53.5006,34.8118l1.1484,0.0084l1.1741,-0.0107l0.1332,15.9994l-1.4249,0.0109l-1.1484,-0.0085zM63.3532,34.2534c0.6622,-0.08787 1.31707,-0.18573 1.9646,-0.2936l2.6281,15.7827c-0.82133,0.1368 -1.65043,0.26073 -2.4873,0.3718zM72.2906,32.3144c0.6464,-0.204 1.27357,-0.41863 1.8815,-0.6439l5.5593,15.0031c-0.85407,0.31653 -1.72947,0.61627 -2.6262,0.8992zM79.924,28.8193c0.45127,-0.306 0.86177,-0.6148 1.2315,-0.9264l10.3103,12.2351c-0.79553,0.6704 -1.64937,1.3149 -2.5615,1.9335zM82.9712,25.6151c0.006,-0.03053 0.009,-0.0589 0.009,-0.0851c0,-0.01053 -0.00043,-0.02103 -0.0013,-0.0315l15.946,-1.3135c0.03687,0.44753 0.0553,0.89587 0.0553,1.345c0,1.0604 -0.1023,2.11327 -0.3069,3.1586zM81.5681,23.5319c-0.33127,-0.30813 -0.70507,-0.6155 -1.1214,-0.9221l9.4878,-12.88339c0.90813,0.66879 1.7515,1.36526 2.5301,2.08939zM74.9016,19.6686c-0.59273,-0.23413 -1.20587,-0.4579 -1.8394,-0.6713l5.1082,-15.16272c0.8926,0.3007 1.76237,0.61833 2.6093,0.95289zM66.0979,17.2355c-0.63793,-0.1152 -1.28363,-0.22063 -1.9371,-0.3163l2.317,-15.83133c0.82953,0.12141 1.6508,0.25553 2.4638,0.40236zM56.6425,16.2701c-0.68187,-0.02007 -1.36597,-0.0301 -2.0523,-0.0301c-0.73147,0 -1.46033,0.0114 -2.1866,0.0342l-0.5024,-15.99209c0.89367,-0.02808 1.79,-0.04212 2.689,-0.04212c0.84347,0 1.68463,0.01236 2.5235,0.03708z"></path></g><defs><radialGradient id="linear_0" cx="50%" cy="50%" fx="50%" fy="50%" r="0.5" gradientTransform="translate(0.5 0.5) scale(0.45773759461732544 1) rotate(360) scale(1 2.1846572159137407) translate(-0.5 -0.5)" ><stop offset="0" stop-color="#174A67" stop-opacity="1" /><stop offset="0.0107421875" stop-color="#174A67" stop-opacity="0.9922" /><stop offset="0.47569334506988525" stop-color="#1F95AB" stop-opacity="0.5725" /><stop offset="1" stop-color="#27DFEF" stop-opacity="0.102" /></radialGradient></defs></svg>