<?xml version="1.0" standalone="no"?><!DOCTYPE svg PUBLIC "-//W3C//DTD SVG 1.1//EN" "http://www.w3.org/Graphics/SVG/1.1/DTD/svg11.dtd"><svg height="274" node-id="1" sillyvg="true" template-height="274" template-width="442" version="1.1" viewBox="0 0 442 274" width="442" xmlns="http://www.w3.org/2000/svg" xmlns:xlink="http://www.w3.org/1999/xlink"><defs node-id="140"></defs><g node-id="329"><g node-id="330"><g node-id="331"><path d="M 377.30 162.10 L 377.72 162.70 L 378.65 163.36 L 380.37 164.12 L 383.17 164.91 L 386.84 165.55 L 390.69 165.86 L 394.64 165.78 L 398.47 165.24 L 401.70 164.20 L 400.93 166.70 L 398.63 172.67 L 396.95 176.20 L 394.85 179.82 L 393.24 182.12 L 391.50 184.12 L 389.63 185.86 L 387.55 187.26 L 385.35 188.13 L 383.00 188.50 L 378.63 188.28 L 375.11 187.57 L 371.87 186.47 L 369.09 185.25 L 363.95 182.93 L 361.41 182.21 L 358.70 182.00 L 355.04 182.35 L 352.22 182.97 L 349.85 183.91 L 348.78 184.76 L 348.56 185.37 L 348.84 185.93 L 349.90 186.60 L 351.62 186.99 L 354.25 187.14 L 360.44 187.11 L 363.81 187.23 L 367.13 187.63 L 369.28 188.12 L 371.23 188.84 L 373.00 189.80 L 375.80 191.70 L 377.30 192.70 L 333.00 192.70 L 333.00 191.70 L 332.90 189.49 L 332.80 188.70 L 331.14 187.91 L 327.16 185.56 L 324.82 183.85 L 322.36 181.69 L 320.13 179.21 L 318.24 176.34 L 317.27 174.27 L 316.62 172.02 L 316.28 169.57 L 316.35 167.11 L 316.90 164.40 L 318.00 161.40 L 319.19 159.61 L 322.44 155.40 L 324.64 152.97 L 327.24 150.52 L 330.09 148.35 L 333.10 146.70 L 332.96 149.32 L 332.80 155.57 L 332.99 163.03 L 333.37 166.60 L 333.93 169.28 L 334.56 170.85 L 335.25 171.63 L 336.00 171.90 L 336.63 171.68 L 337.17 171.06 L 337.62 169.81 L 337.95 167.64 L 338.06 164.59 L 337.71 157.80 L 336.97 151.01 L 336.23 145.79 L 335.90 143.70 L 338.20 142.27 L 344.01 138.86 L 351.71 134.78 L 355.83 132.86 L 359.68 131.32 L 363.43 130.20 L 366.30 129.80 L 365.49 131.71 L 363.56 136.44 L 361.26 142.55 L 359.34 148.56 L 358.72 151.22 L 358.53 152.99 L 358.67 153.97 L 359.02 154.36 L 359.60 154.40 L 360.74 153.76 L 362.46 151.99 L 364.16 149.76 L 366.14 146.81 L 370.04 140.29 L 373.56 133.86 L 376.12 128.95 L 377.10 127.00 L 379.50 126.37 L 381.99 125.86 L 385.44 125.36 L 389.09 125.14 L 392.98 125.32 L 395.55 125.74 L 397.95 126.48 L 400.20 127.55 L 402.19 128.99 L 403.85 130.91 L 405.20 133.40 L 406.38 136.83 L 407.10 139.82 L 407.44 142.43 L 407.49 145.07 L 407.29 147.31 L 406.86 149.21 L 405.84 151.84 L 404.65 153.69 L 403.23 155.11 L 402.00 155.80 L 398.00 156.61 L 391.53 157.69 L 384.60 158.99 L 381.43 159.75 L 379.19 160.48 L 377.88 161.12 L 377.37 161.64 L 377.30 162.10 Z" fill="#f1f6fb" fill-rule="evenodd" group-id="1,2,3" id="Fill-43" node-id="10" stroke="none" target-height="67.56" target-width="91.20999" target-x="316.28" target-y="125.14"></path><path d="M 187.40 1.30 L 188.80 3.79 L 192.29 9.76 L 196.82 16.96 L 199.22 20.42 L 201.34 23.12 L 202.87 24.76 L 203.98 25.64 L 204.80 26.00 L 205.35 25.94 L 205.66 25.55 L 205.75 24.64 L 205.51 23.00 L 204.82 20.54 L 202.76 15.04 L 200.35 9.46 L 198.34 5.14 L 197.50 3.40 L 200.19 3.65 L 203.73 4.54 L 207.39 5.82 L 211.30 7.43 L 218.65 10.92 L 224.20 13.86 L 226.40 15.10 L 226.18 17.06 L 225.71 21.96 L 225.30 28.31 L 225.26 34.64 L 225.49 37.47 L 225.89 39.46 L 226.36 40.59 L 226.90 41.14 L 227.50 41.30 L 228.21 41.00 L 228.83 40.22 L 229.37 38.73 L 229.79 36.21 L 230.00 32.86 L 229.87 25.92 L 229.45 20.13 L 229.20 17.70 L 232.08 19.11 L 234.83 21.01 L 237.36 23.19 L 239.51 25.38 L 242.71 29.18 L 243.90 30.80 L 245.22 34.09 L 245.80 37.03 L 245.77 39.69 L 245.22 42.32 L 244.30 44.71 L 243.02 46.91 L 240.63 49.87 L 238.06 52.28 L 235.39 54.31 L 233.32 55.64 L 231.20 56.80 L 231.14 59.59 L 231.32 62.53 L 231.96 66.87 L 232.62 69.87 L 233.65 73.23 L 235.10 77.00 L 235.79 78.44 L 237.30 82.50 L 235.10 82.30 L 234.60 80.50 L 234.10 79.00 L 232.90 75.90 L 230.99 71.37 L 228.85 67.23 L 227.72 65.59 L 226.80 64.70 L 227.30 63.70 L 226.80 64.70 L 225.45 66.43 L 223.60 67.92 L 221.14 69.16 L 218.49 70.06 L 215.53 70.73 L 212.21 71.16 L 207.20 71.38 L 202.18 71.15 L 197.30 70.52 L 193.20 69.60 L 189.74 68.40 L 188.09 67.43 L 187.40 66.64 L 187.17 65.91 L 187.34 65.16 L 188.11 64.02 L 189.64 62.61 L 193.70 59.60 L 196.16 58.25 L 199.05 57.36 L 202.13 56.85 L 205.26 56.60 L 211.04 56.37 L 213.50 56.12 L 215.10 55.70 L 216.07 55.05 L 216.32 54.52 L 216.10 53.98 L 215.08 53.23 L 212.83 52.46 L 210.17 51.99 L 206.70 51.80 L 204.18 52.10 L 201.85 52.87 L 197.15 55.24 L 194.61 56.50 L 191.62 57.66 L 188.37 58.49 L 184.30 58.90 L 182.09 58.63 L 180.01 57.89 L 178.01 56.66 L 175.33 54.24 L 172.90 51.23 L 170.80 47.95 L 169.09 44.74 L 166.72 39.29 L 165.90 37.00 L 168.95 37.83 L 172.54 38.18 L 176.22 38.08 L 179.79 37.64 L 183.17 36.89 L 185.74 36.03 L 187.31 35.25 L 188.14 34.58 L 188.50 34.00 L 188.41 33.56 L 187.91 33.09 L 186.66 32.55 L 184.54 31.97 L 181.56 31.39 L 175.07 30.46 L 169.06 29.68 L 165.40 29.00 L 164.21 28.37 L 162.82 27.09 L 161.64 25.40 L 160.60 23.00 L 159.97 20.26 L 159.80 16.74 L 160.01 14.31 L 160.56 11.52 L 161.50 8.30 L 162.64 5.95 L 164.10 4.11 L 165.88 2.70 L 167.93 1.62 L 170.14 0.84 L 172.52 0.35 L 176.14 0.04 L 179.55 0.11 L 182.78 0.43 L 185.13 0.81 L 187.40 1.30 Z" fill="#cde0fb" fill-rule="evenodd" group-id="1,2,3" id="Fill-44" node-id="11" stroke="none" target-height="82.46" target-width="86" target-x="159.8" target-y="0.04"></path><path d="M 315.60 6.60 L 315.06 8.74 L 313.64 13.91 L 311.69 20.21 L 310.58 23.28 L 309.53 25.74 L 308.36 27.78 L 307.50 28.60 L 307.04 28.63 L 306.69 28.28 L 306.44 27.26 L 306.37 25.43 L 306.52 22.77 L 307.22 17.11 L 308.02 12.26 L 308.40 10.20 L 306.45 10.92 L 303.98 12.29 L 301.51 13.99 L 298.92 15.99 L 294.14 20.09 L 290.59 23.43 L 289.20 24.80 L 289.97 26.80 L 291.70 31.60 L 293.48 37.39 L 294.13 40.22 L 294.41 42.36 L 294.36 43.69 L 294.06 44.38 L 293.60 44.70 L 293.02 44.62 L 292.40 44.17 L 291.71 43.17 L 290.89 41.37 L 290.06 38.91 L 288.76 33.69 L 287.91 29.27 L 287.60 27.40 L 285.73 29.06 L 284.05 31.05 L 282.59 33.19 L 281.41 35.26 L 279.77 38.75 L 279.20 40.20 L 278.87 42.95 L 279.02 45.27 L 279.58 47.26 L 280.51 49.12 L 281.68 50.73 L 283.08 52.11 L 285.45 53.84 L 287.86 55.13 L 290.27 56.10 L 292.08 56.67 L 293.90 57.10 L 294.50 59.18 L 294.95 61.41 L 295.34 64.79 L 295.41 68.48 L 295.00 73.00 L 295.00 73.00 L 294.79 74.24 L 294.50 77.50 L 296.10 76.90 L 296.10 75.50 L 296.20 74.30 L 296.50 71.70 L 297.03 67.90 L 297.80 64.37 L 298.32 62.92 L 298.80 62.10 L 298.20 61.50 L 298.80 62.10 L 300.14 63.14 L 301.81 63.89 L 303.89 64.33 L 307.18 64.45 L 310.94 64.04 L 314.72 63.19 L 318.42 62.00 L 321.93 60.53 L 324.80 59.00 L 327.07 57.44 L 328.16 56.37 L 328.54 55.64 L 328.51 54.89 L 328.07 54.20 L 327.03 53.50 L 322.50 51.60 L 320.38 51.08 L 318.03 51.00 L 315.64 51.25 L 313.25 51.70 L 308.92 52.70 L 307.05 53.01 L 305.80 53.00 L 304.95 52.70 L 304.66 52.35 L 304.71 51.90 L 305.33 51.13 L 306.85 50.10 L 308.75 49.23 L 311.30 48.40 L 313.26 48.12 L 315.17 48.23 L 319.15 49.06 L 321.29 49.49 L 323.73 49.76 L 326.30 49.72 L 329.40 49.20 L 330.99 48.57 L 332.40 47.62 L 333.64 46.31 L 335.16 43.98 L 336.38 41.25 L 337.30 38.38 L 337.94 35.64 L 338.64 31.08 L 338.80 29.20 L 336.68 30.44 L 334.07 31.43 L 331.30 32.11 L 328.55 32.50 L 325.88 32.63 L 323.78 32.52 L 322.01 32.11 L 321.30 31.60 L 321.36 31.04 L 322.36 30.13 L 323.82 29.26 L 325.93 28.23 L 330.60 26.21 L 334.95 24.43 L 337.60 23.20 L 338.61 22.21 L 339.56 20.26 L 339.91 18.77 L 340.00 16.92 L 339.78 14.64 L 339.21 12.43 L 338.13 9.88 L 336.40 6.90 L 335.06 5.31 L 333.59 4.18 L 331.97 3.45 L 329.32 2.91 L 326.53 2.95 L 323.76 3.42 L 321.22 4.14 L 317.20 5.78 L 315.60 6.60 Z" fill="#f5f9ff" fill-rule="evenodd" group-id="1,2,3" id="Fill-45" node-id="12" stroke="none" target-height="74.59" target-width="61.130005" target-x="278.87" target-y="2.91"></path><path d="M 157.10 255.70 L 154.95 254.17 L 153.36 252.40 L 152.24 250.38 L 151.50 248.14 L 151.08 245.79 L 150.97 243.32 L 151.24 239.63 L 151.86 236.20 L 152.70 233.00 L 153.45 230.70 L 154.30 228.50 L 156.99 227.50 L 163.45 224.96 L 171.30 221.57 L 175.11 219.71 L 178.15 218.02 L 180.02 216.75 L 181.09 215.77 L 181.60 215.00 L 181.61 214.45 L 181.27 214.08 L 180.38 213.84 L 178.71 213.82 L 176.17 214.11 L 170.41 215.26 L 164.53 216.76 L 159.94 218.05 L 158.10 218.60 L 158.79 215.93 L 160.25 212.51 L 162.10 209.03 L 164.32 205.35 L 168.94 198.53 L 172.73 193.41 L 174.30 191.40 L 176.20 191.94 L 180.96 193.21 L 187.16 194.65 L 193.41 195.73 L 196.25 195.96 L 198.29 195.89 L 199.50 195.61 L 200.13 195.17 L 200.40 194.60 L 200.23 193.85 L 199.58 193.10 L 198.20 192.33 L 195.78 191.49 L 192.52 190.73 L 185.64 189.70 L 179.84 189.16 L 177.40 189.00 L 179.28 186.35 L 181.60 183.89 L 184.17 181.70 L 186.66 179.88 L 190.91 177.24 L 192.70 176.30 L 196.18 175.52 L 199.18 175.41 L 201.81 175.88 L 204.32 176.86 L 206.55 178.17 L 208.52 179.82 L 211.06 182.70 L 213.04 185.67 L 214.62 188.69 L 215.60 190.98 L 216.40 193.30 L 219.14 193.81 L 222.07 194.10 L 226.46 194.16 L 229.53 193.97 L 233.03 193.46 L 237.00 192.60 L 238.55 192.14 L 242.80 191.30 L 242.30 193.50 L 240.50 193.70 L 239.00 194.00 L 239.00 194.00 L 235.70 194.70 L 230.92 195.88 L 226.45 197.35 L 224.63 198.22 L 223.60 199.00 L 222.70 198.30 L 223.60 199.00 L 225.09 200.63 L 226.26 202.74 L 227.09 205.42 L 227.54 208.23 L 227.72 211.32 L 227.60 214.72 L 226.99 219.80 L 225.93 224.82 L 224.50 229.62 L 222.90 233.60 L 221.13 236.89 L 219.91 238.40 L 219.01 238.98 L 218.26 239.09 L 217.55 238.81 L 216.56 237.86 L 215.42 236.09 L 213.10 231.50 L 212.16 228.79 L 211.74 225.73 L 211.74 222.55 L 212.00 219.36 L 212.71 213.54 L 212.86 211.04 L 212.70 209.40 L 212.21 208.31 L 211.73 207.97 L 211.15 208.11 L 210.25 209.02 L 209.11 211.16 L 208.23 213.76 L 207.50 217.20 L 207.39 219.80 L 207.78 222.28 L 209.34 227.40 L 210.15 230.16 L 210.80 233.34 L 211.07 236.74 L 210.80 240.90 L 210.20 243.09 L 209.16 245.07 L 207.64 246.88 L 204.84 249.19 L 201.48 251.15 L 197.91 252.73 L 194.46 253.93 L 188.69 255.44 L 186.30 255.90 L 187.62 252.95 L 188.55 249.39 L 189.06 245.67 L 189.21 242.00 L 189.04 238.47 L 188.62 235.73 L 188.12 234.02 L 187.61 233.06 L 187.10 232.60 L 186.67 232.61 L 186.13 233.03 L 185.39 234.19 L 184.47 236.23 L 183.42 239.14 L 181.43 245.54 L 179.68 251.49 L 178.40 255.10 L 177.55 256.22 L 176.03 257.42 L 174.14 258.33 L 171.57 259.00 L 168.74 259.19 L 165.21 258.78 L 162.83 258.18 L 160.14 257.17 L 157.10 255.70" fill="#dfebf9" fill-rule="evenodd" group-id="1,2,3" id="Fill-46" node-id="13" stroke="none" target-height="83.78" target-width="91.83" target-x="150.97" target-y="175.41"></path><path d="M 320.60 245.60 L 322.02 243.86 L 322.95 242.05 L 323.42 240.14 L 323.51 237.12 L 322.95 234.05 L 321.95 231.07 L 320.72 228.39 L 318.26 224.22 L 317.10 222.60 L 314.68 222.37 L 308.83 221.70 L 301.68 220.63 L 298.16 219.94 L 295.33 219.22 L 292.92 218.30 L 291.90 217.50 L 291.78 216.98 L 292.09 216.53 L 293.15 216.08 L 295.12 215.68 L 298.02 215.39 L 304.29 215.18 L 309.70 215.23 L 312.00 215.30 L 310.86 213.26 L 308.94 210.78 L 306.68 208.34 L 304.07 205.82 L 298.82 201.25 L 294.62 197.90 L 292.90 196.60 L 290.87 197.81 L 285.99 200.56 L 280.05 203.53 L 277.11 204.74 L 274.85 205.42 L 273.42 205.58 L 272.62 205.37 L 272.20 204.90 L 272.19 204.25 L 272.57 203.49 L 273.54 202.56 L 275.35 201.34 L 277.87 200.01 L 283.30 197.67 L 287.93 195.96 L 289.90 195.30 L 287.79 193.51 L 285.36 192.00 L 282.78 190.75 L 280.34 189.80 L 276.27 188.58 L 274.60 188.20 L 271.58 188.32 L 269.10 188.89 L 267.04 189.85 L 265.19 191.21 L 263.65 192.77 L 262.39 194.57 L 260.91 197.50 L 259.93 200.38 L 259.28 203.21 L 258.96 205.32 L 258.80 207.40 L 256.66 208.44 L 254.32 209.34 L 250.74 210.36 L 246.76 211.09 L 241.80 211.40 L 240.43 211.35 L 236.80 211.60 L 237.70 213.30 L 239.20 213.10 L 240.50 213.00 L 243.30 212.90 L 247.48 212.80 L 251.46 213.03 L 253.12 213.37 L 254.10 213.80 L 254.70 213.00 L 254.10 213.80 L 253.21 215.47 L 252.68 217.45 L 252.56 219.82 L 253.00 223.49 L 254.11 227.57 L 255.69 231.61 L 257.63 235.51 L 259.84 239.16 L 262.00 242.10 L 264.16 244.40 L 265.49 245.37 L 266.35 245.64 L 267.00 245.56 L 267.52 245.17 L 268.14 244.17 L 268.69 242.47 L 269.60 238.20 L 269.79 235.78 L 269.46 233.18 L 268.78 230.57 L 267.89 228.01 L 266.07 223.39 L 265.41 221.38 L 265.20 220.00 L 265.37 219.00 L 265.70 218.63 L 266.20 218.61 L 267.13 219.16 L 268.50 220.65 L 269.77 222.57 L 271.10 225.20 L 271.74 227.31 L 271.95 229.44 L 271.76 233.99 L 271.68 236.43 L 271.82 239.19 L 272.31 242.04 L 273.40 245.40 L 274.37 247.07 L 275.65 248.46 L 277.28 249.61 L 280.08 250.89 L 283.24 251.76 L 286.51 252.27 L 289.59 252.49 L 294.64 252.46 L 296.70 252.30 L 294.98 250.17 L 293.46 247.45 L 292.25 244.51 L 291.35 241.54 L 290.75 238.61 L 290.51 236.28 L 290.66 234.27 L 291.10 233.40 L 291.46 233.32 L 291.99 233.55 L 292.85 234.34 L 294.03 235.81 L 295.52 237.96 L 298.51 242.75 L 301.21 247.23 L 303.00 249.90 L 304.32 250.77 L 306.63 251.43 L 308.32 251.55 L 310.34 251.32 L 312.77 250.67 L 315.06 249.67 L 317.65 248.03 L 320.60 245.60" fill="#afcdfb" fill-rule="evenodd" group-id="1,2,3" id="Fill-47" node-id="14" stroke="none" target-height="64.29001" target-width="86.71001" target-x="236.8" target-y="188.2"></path><path d="M 441.40 269.00 L 440.90 269.00 L 0.60 268.80 L 0.60 267.80 L 1.10 267.80 L 441.40 268.00 Z" fill="#3a6bea" fill-rule="nonzero" group-id="1,2,3" node-id="151" stroke="none" target-height="1.2000122" target-width="440.8" target-x="0.6" target-y="267.8"></path><path d="M 39.60 268.40 L 39.89 267.88 L 39.80 267.24 L 39.42 266.62 L 38.77 266.02 L 37.98 265.59 L 37.10 265.40 L 35.83 265.44 L 34.20 265.80 L 33.86 262.38 L 33.11 257.39 L 32.53 254.72 L 31.80 252.21 L 30.85 249.92 L 29.78 248.25 L 28.89 247.41 L 27.95 246.98 L 26.90 246.90 L 25.44 247.25 L 24.64 247.74 L 24.27 248.35 L 24.21 249.54 L 24.76 251.14 L 26.77 254.51 L 28.70 257.70 L 30.00 260.77 L 31.17 263.89 L 32.00 266.30 L 30.40 266.60 L 29.39 263.71 L 27.66 259.94 L 26.54 258.14 L 25.35 256.74 L 24.44 256.03 L 23.53 255.66 L 22.60 255.60 L 21.16 255.97 L 20.35 256.46 L 19.95 257.03 L 19.88 258.13 L 20.48 259.47 L 21.56 260.71 L 23.10 261.90 L 26.82 264.52 L 29.80 266.70 L 26.10 267.00 L 23.86 267.12 L 22.43 267.47 L 21.26 268.01 L 20.70 268.40 L 39.60 268.40 Z" fill="#a8d29f" fill-rule="evenodd" group-id="1,2,3" id="Fill-141" node-id="16" stroke="none" target-height="21.5" target-width="20.01" target-x="19.88" target-y="246.9"></path><path d="M 407.60 268.40 L 407.31 267.88 L 407.40 267.24 L 407.78 266.62 L 408.43 266.02 L 409.22 265.59 L 410.10 265.40 L 411.37 265.43 L 413.00 265.70 L 413.34 262.34 L 414.09 257.40 L 414.67 254.74 L 415.40 252.25 L 416.35 249.96 L 417.42 248.29 L 418.31 247.44 L 419.25 247.00 L 420.30 246.90 L 421.76 247.25 L 422.56 247.74 L 422.93 248.35 L 422.99 249.54 L 422.44 251.12 L 420.43 254.47 L 418.50 257.60 L 416.59 262.24 L 415.20 266.20 L 416.80 266.50 L 417.81 263.63 L 419.54 259.89 L 420.66 258.11 L 421.85 256.73 L 422.76 256.02 L 423.67 255.66 L 424.60 255.60 L 426.05 255.96 L 426.86 256.44 L 427.25 257.01 L 427.32 258.08 L 426.72 259.39 L 425.64 260.62 L 424.10 261.80 L 420.04 264.57 L 417.40 266.60 L 421.10 266.90 L 423.34 267.02 L 424.77 267.38 L 425.94 267.91 L 426.50 268.30 L 407.60 268.30 Z" fill="#a8d29f" fill-rule="evenodd" group-id="1,2,3" id="Fill-142" node-id="17" stroke="none" target-height="21.5" target-width="20.01001" target-x="407.31" target-y="246.9"></path></g><g node-id="332"><g node-id="337"><g node-id="357"><path d="M 143.20 230.66 L 356.50 230.66 L 358.64 230.37 L 360.53 229.56 L 362.15 228.31 L 363.40 226.69 L 364.21 224.80 L 364.50 222.66 L 364.50 54.46 L 364.21 52.33 L 363.40 50.43 L 362.15 48.81 L 360.53 47.56 L 358.64 46.75 L 356.50 46.46 L 145.20 46.46 L 143.38 46.63 L 141.71 47.09 L 140.16 47.83 L 138.76 48.83 L 137.57 50.02 L 136.57 51.42 L 135.83 52.97 L 135.37 54.64 L 135.20 56.46 L 135.20 222.66 L 135.49 224.80 L 136.30 226.69 L 137.55 228.31 L 139.17 229.56 L 141.06 230.37 L 143.20 230.66 Z" fill="#fffffe" fill-opacity="0.5" fill-rule="evenodd" group-id="1,2,4,9,29" id="Fill-69_1_" node-id="20" stroke="none" target-height="184.20001" target-width="229.3" target-x="135.2" target-y="46.46"></path></g><path d="M 356.40 230.96 L 143.20 230.96 L 141.02 230.66 L 139.07 229.84 L 137.41 228.55 L 136.13 226.89 L 135.30 224.95 L 135.00 222.76 L 135.00 56.46 L 135.14 54.58 L 135.59 52.85 L 136.33 51.26 L 137.34 49.81 L 138.56 48.59 L 140.00 47.56 L 141.59 46.80 L 143.32 46.34 L 145.20 46.16 L 356.50 46.16 L 358.68 46.46 L 360.63 47.29 L 362.29 48.57 L 363.57 50.24 L 364.40 52.18 L 364.70 54.36 L 364.70 222.56 L 364.40 224.84 L 363.57 226.83 L 362.27 228.53 L 360.60 229.83 L 358.63 230.66 L 356.40 230.96 Z M 145.20 46.66 L 143.42 46.83 L 141.78 47.28 L 140.26 48.00 L 138.28 49.54 L 136.74 51.52 L 136.01 53.04 L 135.57 54.68 L 135.40 56.46 L 135.40 222.66 L 135.68 224.75 L 136.47 226.59 L 137.69 228.17 L 139.27 229.39 L 141.11 230.18 L 143.20 230.46 L 356.50 230.46 L 358.59 230.18 L 360.43 229.39 L 362.01 228.17 L 363.23 226.59 L 364.02 224.75 L 364.30 222.66 L 364.30 54.46 L 364.02 52.38 L 363.23 50.53 L 362.01 48.95 L 360.43 47.73 L 358.59 46.94 L 356.50 46.66 L 145.20 46.66 Z" fill="#d3e3fc" fill-rule="nonzero" group-id="1,2,4,9" node-id="163" stroke="none" target-height="184.8" target-width="229.70001" target-x="135" target-y="46.16"></path></g><g node-id="338"><path d="M 157.90 94.66 L 338.90 94.66 L 340.67 94.91 L 342.21 95.54 L 343.55 96.57 L 344.59 97.90 L 345.24 99.45 L 345.50 101.26 L 345.50 101.26 L 345.25 103.04 L 344.62 104.57 L 343.59 105.91 L 342.26 106.95 L 340.71 107.60 L 338.90 107.86 L 157.90 107.86 L 156.13 107.61 L 154.59 106.98 L 153.25 105.95 L 152.21 104.62 L 151.56 103.08 L 151.30 101.26 L 151.30 101.26 L 151.59 99.49 L 152.25 97.95 L 153.29 96.61 L 154.62 95.56 L 156.14 94.92 L 157.90 94.66 Z" fill="#f7f9fe" fill-rule="evenodd" group-id="1,2,4,10" id="矩形_1_" node-id="23" stroke="none" target-height="13.199997" target-width="194.2" target-x="151.3" target-y="94.66"></path><path d="M 338.90 108.06 L 157.90 108.06 L 156.06 107.81 L 154.45 107.12 L 153.07 106.05 L 152.02 104.67 L 151.34 103.06 L 151.10 101.26 L 151.35 99.46 L 152.04 97.85 L 153.11 96.47 L 154.49 95.40 L 156.10 94.71 L 157.90 94.46 L 338.90 94.46 L 340.74 94.71 L 342.35 95.40 L 343.73 96.47 L 344.78 97.85 L 345.46 99.46 L 345.70 101.26 L 345.46 103.06 L 344.78 104.67 L 343.73 106.05 L 342.35 107.12 L 340.74 107.81 L 338.90 108.06 Z M 157.90 94.96 L 156.18 95.20 L 154.71 95.81 L 153.44 96.80 L 152.45 98.07 L 151.84 99.54 L 151.60 101.26 L 151.84 102.98 L 152.45 104.45 L 153.44 105.72 L 154.71 106.71 L 156.18 107.32 L 157.90 107.56 L 338.90 107.56 L 340.62 107.32 L 342.09 106.71 L 343.36 105.72 L 344.35 104.45 L 344.96 102.98 L 345.20 101.26 L 344.96 99.54 L 344.35 98.07 L 343.36 96.80 L 342.09 95.81 L 340.62 95.20 L 338.90 94.96 L 157.90 94.96 Z" fill="#91b9f7" fill-rule="nonzero" group-id="1,2,4,10" node-id="169" stroke="none" target-height="13.599998" target-width="194.6" target-x="151.1" target-y="94.46"></path></g><g node-id="339"><path d="M 157.90 116.46 L 202.50 116.46 L 204.22 116.70 L 205.69 117.31 L 206.96 118.30 L 207.95 119.57 L 208.56 121.04 L 208.80 122.76 L 208.80 122.76 L 208.56 124.48 L 207.95 125.95 L 206.96 127.22 L 205.69 128.21 L 204.22 128.82 L 202.50 129.06 L 157.90 129.06 L 156.18 128.82 L 154.71 128.21 L 153.44 127.22 L 152.45 125.95 L 151.84 124.48 L 151.60 122.76 L 151.60 122.76 L 151.84 121.04 L 152.45 119.57 L 153.44 118.30 L 154.71 117.31 L 156.18 116.70 L 157.90 116.46 Z" fill="#f7f9fe" fill-rule="evenodd" group-id="1,2,4,11" node-id="174" stroke="none" target-height="12.599998" target-width="57.199997" target-x="151.6" target-y="116.46"></path><path d="M 202.50 129.56 L 157.90 129.56 L 156.06 129.31 L 154.45 128.62 L 153.07 127.55 L 152.02 126.17 L 151.34 124.56 L 151.10 122.76 L 151.35 120.92 L 152.04 119.31 L 153.11 117.94 L 154.49 116.88 L 156.10 116.20 L 157.90 115.96 L 202.50 115.96 L 204.34 116.21 L 205.95 116.90 L 207.33 117.97 L 208.38 119.35 L 209.06 120.96 L 209.30 122.76 L 209.06 124.56 L 208.38 126.17 L 207.33 127.55 L 205.95 128.62 L 204.34 129.31 L 202.50 129.56 Z M 157.90 116.96 L 156.33 117.18 L 154.98 117.75 L 153.80 118.66 L 152.89 119.84 L 152.32 121.19 L 152.10 122.76 L 152.32 124.33 L 152.89 125.68 L 153.80 126.86 L 154.98 127.77 L 156.33 128.34 L 157.90 128.56 L 202.50 128.56 L 204.07 128.34 L 205.42 127.77 L 206.60 126.86 L 207.51 125.68 L 208.08 124.33 L 208.30 122.76 L 208.08 121.19 L 207.51 119.84 L 206.60 118.66 L 205.42 117.75 L 204.07 117.18 L 202.50 116.96 L 157.90 116.96 Z" fill="#91b9f7" fill-rule="nonzero" group-id="1,2,4,11" node-id="176" stroke="none" target-height="13.599998" target-width="58.199997" target-x="151.1" target-y="115.96"></path></g><g node-id="340"><path d="M 157.90 116.16 L 202.50 116.16 L 204.27 116.41 L 205.81 117.04 L 207.15 118.07 L 208.19 119.40 L 208.84 120.95 L 209.10 122.76 L 209.10 122.76 L 208.85 124.54 L 208.22 126.07 L 207.19 127.41 L 205.86 128.45 L 204.31 129.10 L 202.50 129.36 L 157.90 129.36 L 156.13 129.11 L 154.59 128.48 L 153.25 127.45 L 152.21 126.12 L 151.56 124.58 L 151.30 122.76 L 151.30 122.76 L 151.59 120.99 L 152.25 119.45 L 153.29 118.11 L 154.62 117.06 L 156.14 116.42 L 157.90 116.16 Z" fill="#f7f9fe" fill-rule="evenodd" group-id="1,2,4,12" node-id="181" stroke="none" target-height="13.199997" target-width="57.800003" target-x="151.3" target-y="116.16"></path><path d="M 202.50 129.56 L 157.90 129.56 L 156.06 129.31 L 154.45 128.62 L 153.07 127.55 L 152.02 126.17 L 151.34 124.56 L 151.10 122.76 L 151.35 120.92 L 152.04 119.31 L 153.11 117.94 L 154.49 116.88 L 156.10 116.20 L 157.90 115.96 L 202.50 115.96 L 204.34 116.21 L 205.95 116.90 L 207.33 117.97 L 208.38 119.35 L 209.06 120.96 L 209.30 122.76 L 209.06 124.56 L 208.38 126.17 L 207.33 127.55 L 205.95 128.62 L 204.34 129.31 L 202.50 129.56 Z M 157.90 116.46 L 156.18 116.70 L 154.71 117.31 L 153.44 118.30 L 152.45 119.57 L 151.84 121.04 L 151.60 122.76 L 151.84 124.48 L 152.45 125.95 L 153.44 127.22 L 154.71 128.21 L 156.18 128.82 L 157.90 129.06 L 202.50 129.06 L 204.22 128.82 L 205.69 128.21 L 206.96 127.22 L 207.95 125.95 L 208.56 124.48 L 208.80 122.76 L 208.56 121.04 L 207.95 119.57 L 206.96 118.30 L 205.69 117.31 L 204.22 116.70 L 202.50 116.46 L 157.90 116.46 Z" fill="#91b9f7" fill-rule="nonzero" group-id="1,2,4,12" node-id="183" stroke="none" target-height="13.599998" target-width="58.199997" target-x="151.1" target-y="115.96"></path></g><g node-id="341"><path d="M 157.90 138.36 L 339.00 138.36 L 340.77 138.61 L 342.31 139.24 L 343.65 140.27 L 344.69 141.60 L 345.34 143.15 L 345.60 144.96 L 345.60 144.96 L 345.35 146.74 L 344.72 148.27 L 343.69 149.61 L 342.36 150.65 L 340.81 151.30 L 339.00 151.56 L 157.90 151.56 L 156.13 151.31 L 154.59 150.68 L 153.25 149.65 L 152.21 148.32 L 151.56 146.78 L 151.30 144.96 L 151.30 144.96 L 151.59 143.14 L 152.25 141.60 L 153.29 140.27 L 154.61 139.24 L 156.13 138.61 L 157.90 138.36 Z" fill="#f7f9fe" fill-rule="evenodd" group-id="1,2,4,13" node-id="188" stroke="none" target-height="13.199997" target-width="194.3" target-x="151.3" target-y="138.36"></path><path d="M 339.10 151.76 L 157.90 151.76 L 156.06 151.51 L 154.45 150.82 L 153.07 149.75 L 152.02 148.37 L 151.34 146.76 L 151.10 144.96 L 151.35 143.16 L 152.04 141.55 L 153.11 140.17 L 154.49 139.10 L 156.10 138.41 L 157.90 138.16 L 339.00 138.16 L 340.84 138.41 L 342.45 139.10 L 343.83 140.17 L 344.88 141.55 L 345.56 143.16 L 345.80 144.96 L 345.56 146.76 L 344.89 148.37 L 343.84 149.75 L 342.48 150.82 L 340.89 151.51 L 339.10 151.76 Z M 157.90 138.66 L 156.18 138.90 L 154.71 139.51 L 153.44 140.50 L 152.45 141.77 L 151.84 143.24 L 151.60 144.96 L 151.84 146.68 L 152.45 148.15 L 153.44 149.42 L 154.71 150.41 L 156.18 151.02 L 157.90 151.26 L 339.00 151.26 L 340.72 151.02 L 342.19 150.41 L 343.46 149.42 L 344.45 148.15 L 345.06 146.68 L 345.30 144.96 L 345.06 143.24 L 344.45 141.77 L 343.46 140.50 L 342.19 139.51 L 340.72 138.90 L 339.00 138.66 L 157.90 138.66 Z" fill="#91b9f7" fill-rule="nonzero" group-id="1,2,4,13" node-id="190" stroke="none" target-height="13.599991" target-width="194.69998" target-x="151.1" target-y="138.16"></path></g><g node-id="342"><path d="M 169.70 160.36 L 327.30 160.36 L 330.64 160.67 L 333.70 161.51 L 336.53 162.86 L 339.10 164.68 L 341.28 166.86 L 343.10 169.43 L 344.45 172.26 L 345.29 175.32 L 345.60 178.66 L 345.60 178.66 L 345.29 182.00 L 344.45 185.06 L 343.10 187.89 L 341.28 190.46 L 339.10 192.64 L 336.53 194.46 L 333.70 195.82 L 330.64 196.65 L 327.30 196.96 L 169.70 196.96 L 166.36 196.65 L 163.30 195.82 L 160.47 194.46 L 157.90 192.64 L 155.72 190.46 L 153.90 187.89 L 152.55 185.06 L 151.71 182.00 L 151.40 178.66 L 151.40 178.66 L 151.71 175.32 L 152.55 172.26 L 153.90 169.43 L 155.72 166.86 L 157.90 164.68 L 160.47 162.86 L 163.30 161.51 L 166.36 160.67 L 169.70 160.36 Z" fill="#f7f9fe" fill-rule="evenodd" group-id="1,2,4,14" node-id="195" stroke="none" target-height="36.600006" target-width="194.20001" target-x="151.4" target-y="160.36"></path><path d="M 327.30 197.36 L 169.70 197.36 L 166.30 197.05 L 163.18 196.20 L 160.30 194.83 L 157.69 192.98 L 155.48 190.77 L 153.63 188.16 L 152.26 185.28 L 151.42 182.17 L 151.10 178.76 L 151.42 175.36 L 152.27 172.24 L 153.66 169.36 L 155.51 166.75 L 157.73 164.54 L 160.34 162.69 L 163.23 161.32 L 166.33 160.48 L 169.70 160.16 L 327.30 160.16 L 330.70 160.48 L 333.82 161.32 L 336.70 162.69 L 339.31 164.54 L 341.52 166.75 L 343.37 169.36 L 344.74 172.24 L 345.58 175.36 L 345.90 178.76 L 345.58 182.16 L 344.73 185.28 L 343.34 188.16 L 341.49 190.77 L 339.27 192.98 L 336.66 194.83 L 333.77 196.20 L 330.67 197.05 L 327.30 197.36 Z M 169.70 160.66 L 166.40 160.97 L 163.37 161.79 L 160.56 163.13 L 158.02 164.93 L 155.87 167.08 L 154.07 169.62 L 152.73 172.43 L 151.91 175.46 L 151.60 178.76 L 151.91 182.07 L 152.73 185.09 L 154.07 187.90 L 155.87 190.44 L 158.02 192.59 L 160.56 194.39 L 163.37 195.73 L 166.40 196.55 L 169.70 196.86 L 327.30 196.86 L 330.60 196.55 L 333.63 195.73 L 336.44 194.39 L 338.98 192.59 L 341.13 190.44 L 342.93 187.90 L 344.27 185.09 L 345.09 182.07 L 345.40 178.76 L 345.09 175.46 L 344.27 172.43 L 342.93 169.62 L 341.13 167.08 L 338.98 164.93 L 336.44 163.13 L 333.63 161.79 L 330.60 160.97 L 327.30 160.66 L 169.70 160.66 Z" fill="#91b9f7" fill-rule="nonzero" group-id="1,2,4,14" node-id="197" stroke="none" target-height="37.199997" target-width="194.79999" target-x="151.1" target-y="160.16"></path></g><g node-id="343"><path d="M 221.20 116.16 L 271.00 116.16 L 272.77 116.41 L 274.31 117.04 L 275.65 118.07 L 276.69 119.40 L 277.34 120.95 L 277.60 122.76 L 277.60 122.76 L 277.35 124.54 L 276.72 126.07 L 275.69 127.41 L 274.36 128.45 L 272.81 129.10 L 271.00 129.36 L 221.20 129.36 L 219.43 129.11 L 217.89 128.48 L 216.55 127.45 L 215.51 126.12 L 214.86 124.58 L 214.60 122.76 L 214.60 122.76 L 214.84 121.01 L 215.51 119.45 L 216.55 118.11 L 217.89 117.07 L 219.45 116.40 L 221.20 116.16 Z" fill="#f7f9fe" fill-rule="evenodd" group-id="1,2,4,15" node-id="202" stroke="none" target-height="13.199997" target-width="63" target-x="214.6" target-y="116.16"></path><path d="M 271.00 129.56 L 221.20 129.56 L 219.36 129.31 L 217.75 128.62 L 216.37 127.55 L 215.32 126.17 L 214.64 124.56 L 214.40 122.76 L 214.65 120.92 L 215.34 119.31 L 216.41 117.94 L 217.79 116.88 L 219.40 116.20 L 221.20 115.96 L 271.00 115.96 L 272.84 116.21 L 274.45 116.90 L 275.83 117.97 L 276.88 119.35 L 277.56 120.96 L 277.80 122.76 L 277.55 124.56 L 276.86 126.17 L 275.79 127.55 L 274.41 128.62 L 272.80 129.31 L 271.00 129.56 Z M 221.20 116.46 L 219.48 116.70 L 218.01 117.31 L 216.74 118.30 L 215.75 119.57 L 215.14 121.04 L 214.90 122.76 L 215.14 124.48 L 215.75 125.95 L 216.74 127.22 L 218.01 128.21 L 219.48 128.82 L 221.20 129.06 L 271.00 129.06 L 272.72 128.82 L 274.19 128.21 L 275.46 127.22 L 276.45 125.95 L 277.06 124.48 L 277.30 122.76 L 277.06 121.04 L 276.45 119.57 L 275.46 118.30 L 274.19 117.31 L 272.72 116.70 L 271.00 116.46 L 221.20 116.46 Z" fill="#91b9f7" fill-rule="nonzero" group-id="1,2,4,15" node-id="204" stroke="none" target-height="13.599998" target-width="63.399994" target-x="214.4" target-y="115.96"></path></g><g node-id="344"><path d="M 289.10 116.16 L 338.90 116.16 L 340.67 116.41 L 342.21 117.04 L 343.55 118.07 L 344.59 119.40 L 345.24 120.95 L 345.50 122.76 L 345.50 122.76 L 345.25 124.54 L 344.62 126.07 L 343.59 127.41 L 342.26 128.45 L 340.71 129.10 L 338.90 129.36 L 289.10 129.36 L 287.33 129.11 L 285.79 128.48 L 284.45 127.45 L 283.41 126.12 L 282.76 124.58 L 282.50 122.76 L 282.50 122.76 L 282.74 121.01 L 283.41 119.45 L 284.45 118.11 L 285.79 117.07 L 287.35 116.40 L 289.10 116.16 Z" fill="#f7f9fe" fill-rule="evenodd" group-id="1,2,4,16" node-id="209" stroke="none" target-height="13.199997" target-width="63" target-x="282.5" target-y="116.16"></path><path d="M 338.90 129.56 L 289.10 129.56 L 287.26 129.31 L 285.65 128.62 L 284.27 127.55 L 283.22 126.17 L 282.54 124.56 L 282.30 122.76 L 282.55 120.92 L 283.24 119.31 L 284.31 117.94 L 285.69 116.88 L 287.30 116.20 L 289.10 115.96 L 338.90 115.96 L 340.74 116.21 L 342.35 116.90 L 343.73 117.97 L 344.78 119.35 L 345.46 120.96 L 345.70 122.76 L 345.46 124.56 L 344.78 126.17 L 343.73 127.55 L 342.35 128.62 L 340.74 129.31 L 338.90 129.56 Z M 289.10 116.46 L 287.38 116.70 L 285.91 117.31 L 284.64 118.30 L 283.65 119.57 L 283.04 121.04 L 282.80 122.76 L 283.04 124.48 L 283.65 125.95 L 284.64 127.22 L 285.91 128.21 L 287.38 128.82 L 289.10 129.06 L 338.90 129.06 L 340.62 128.82 L 342.09 128.21 L 343.36 127.22 L 344.35 125.95 L 344.96 124.48 L 345.20 122.76 L 344.96 121.04 L 344.35 119.57 L 343.36 118.30 L 342.09 117.31 L 340.62 116.70 L 338.90 116.46 L 289.10 116.46 Z" fill="#91b9f7" fill-rule="nonzero" group-id="1,2,4,16" node-id="211" stroke="none" target-height="13.599998" target-width="63.400024" target-x="282.3" target-y="115.96"></path></g><g node-id="345"><path d="M 271.10 208.06 L 296.80 208.06 L 298.52 208.31 L 300.01 208.93 L 301.31 209.95 L 302.33 211.25 L 302.95 212.74 L 303.20 214.46 L 303.20 214.46 L 302.95 216.18 L 302.33 217.67 L 301.31 218.97 L 300.01 219.99 L 298.52 220.61 L 296.80 220.86 L 271.10 220.86 L 269.38 220.61 L 267.89 219.99 L 266.59 218.97 L 265.57 217.67 L 264.95 216.18 L 264.70 214.46 L 264.70 214.46 L 264.94 212.69 L 265.56 211.20 L 266.55 209.91 L 267.84 208.92 L 269.33 208.30 L 271.10 208.06 Z" fill="#f7f9fe" fill-rule="evenodd" group-id="1,2,4,17" node-id="216" stroke="none" target-height="12.800003" target-width="38.5" target-x="264.7" target-y="208.06"></path><path d="M 296.80 221.26 L 271.10 221.26 L 269.26 221.01 L 267.65 220.32 L 266.27 219.25 L 265.22 217.87 L 264.54 216.26 L 264.30 214.46 L 264.55 212.62 L 265.24 211.01 L 266.31 209.64 L 267.69 208.58 L 269.30 207.90 L 271.10 207.66 L 296.80 207.66 L 298.64 207.91 L 300.25 208.60 L 301.63 209.67 L 302.68 211.05 L 303.36 212.66 L 303.60 214.46 L 303.35 216.26 L 302.66 217.87 L 301.59 219.25 L 300.21 220.32 L 298.60 221.01 L 296.80 221.26 Z M 271.10 208.46 L 269.48 208.69 L 268.08 209.28 L 266.86 210.22 L 265.92 211.44 L 265.33 212.84 L 265.10 214.46 L 265.33 216.08 L 265.92 217.48 L 266.86 218.70 L 268.08 219.65 L 269.48 220.23 L 271.10 220.46 L 296.80 220.46 L 298.42 220.23 L 299.82 219.65 L 301.04 218.70 L 301.98 217.48 L 302.57 216.08 L 302.80 214.46 L 302.57 212.84 L 301.98 211.44 L 301.04 210.22 L 299.82 209.28 L 298.42 208.69 L 296.80 208.46 L 271.10 208.46 Z" fill="#2a8ef2" fill-rule="nonzero" group-id="1,2,4,17" node-id="218" stroke="none" target-height="13.599991" target-width="39.30002" target-x="264.3" target-y="207.66"></path></g><path d="M 313.90 207.66 L 339.60 207.66 L 341.47 207.92 L 343.05 208.58 L 344.43 209.64 L 345.48 211.01 L 346.14 212.59 L 346.40 214.46 L 346.40 214.46 L 346.14 216.33 L 345.48 217.92 L 344.43 219.29 L 343.05 220.35 L 341.47 221.00 L 339.60 221.26 L 313.90 221.26 L 312.03 221.00 L 310.45 220.35 L 309.07 219.29 L 308.02 217.92 L 307.36 216.33 L 307.10 214.46 L 307.10 214.46 L 307.36 212.59 L 308.02 211.01 L 309.07 209.64 L 310.45 208.58 L 312.03 207.92 L 313.90 207.66 Z" fill="#2a8ef2" fill-rule="evenodd" group-id="1,2,4" node-id="221" stroke="none" target-height="13.599991" target-width="39.299988" target-x="307.1" target-y="207.66"></path><path d="M 166.70 72.86 L 166.44 74.73 L 165.78 76.32 L 164.72 77.69 L 163.35 78.75 L 161.77 79.40 L 159.90 79.66 L 158.10 79.42 L 156.49 78.74 L 155.11 77.69 L 154.04 76.31 L 153.35 74.70 L 153.10 72.86 L 153.36 70.99 L 154.02 69.41 L 155.07 68.04 L 156.45 66.98 L 158.03 66.32 L 159.90 66.06 L 161.74 66.27 L 163.35 66.94 L 164.72 68.00 L 165.78 69.39 L 166.46 71.02 L 166.70 72.86" fill="#2a8ef2" fill-rule="evenodd" group-id="1,2,4" id="Fill-80" node-id="47" stroke="none" target-height="13.600006" target-width="13.599991" target-x="153.1" target-y="66.06"></path><path d="M 160.00 75.96 L 159.59 75.77 L 159.40 75.36 L 159.40 70.16 L 159.59 69.75 L 160.00 69.56 L 160.41 69.75 L 160.60 70.16 L 160.60 75.36 L 160.46 75.77 L 160.00 75.96" fill="#fffffe" fill-rule="evenodd" group-id="1,2,4" id="Fill-81" node-id="48" stroke="none" target-height="6.4000015" target-width="1.2000122" target-x="159.4" target-y="69.56"></path><path d="M 156.80 72.76 L 156.99 72.35 L 157.40 72.16 L 162.60 72.16 L 163.01 72.35 L 163.20 72.76 L 163.01 73.17 L 162.60 73.36 L 157.40 73.36 L 156.99 73.17 L 156.80 72.76" fill="#fffffe" fill-rule="evenodd" group-id="1,2,4" node-id="225" stroke="none" target-height="1.199997" target-width="6.399994" target-x="156.8" target-y="72.16"></path><path d="M 242.10 168.06 L 238.75 168.12 L 229.60 168.15 L 216.03 168.16 L 199.40 168.16 L 182.77 168.15 L 169.20 168.11 L 160.05 168.08 L 156.70 168.06 L 160.05 168.00 L 169.20 167.97 L 182.77 167.96 L 199.40 167.96 L 216.03 167.96 L 229.60 167.97 L 238.75 168.00 L 242.10 168.06" fill="#2a8ef2" fill-rule="evenodd" group-id="1,2,4" id="Fill-121" node-id="50" stroke="none" target-height="0.19999695" target-width="85.40001" target-x="156.7" target-y="167.96"></path><path d="M 336.40 174.76 L 331.82 174.81 L 319.08 174.84 L 299.64 174.85 L 274.99 174.86 L 246.60 174.86 L 218.20 174.85 L 193.53 174.83 L 174.06 174.80 L 161.29 174.77 L 156.70 174.76 L 161.28 174.71 L 174.03 174.68 L 193.48 174.67 L 218.17 174.66 L 246.60 174.66 L 274.95 174.62 L 299.59 174.62 L 319.05 174.65 L 331.81 174.70 L 336.40 174.76" fill="#2a8ef2" fill-rule="evenodd" group-id="1,2,4" id="Fill-122" node-id="51" stroke="none" target-height="0.2400055" target-width="179.7" target-x="156.7" target-y="174.62"></path><path d="M 336.40 180.96 L 331.82 181.01 L 319.08 181.04 L 299.64 181.05 L 274.99 181.06 L 246.60 181.06 L 218.20 181.05 L 193.53 181.03 L 174.06 181.00 L 161.29 180.97 L 156.70 180.96 L 161.28 180.95 L 174.03 180.93 L 193.48 180.90 L 218.17 180.87 L 246.60 180.86 L 274.95 180.87 L 299.59 180.90 L 319.05 180.93 L 331.81 180.95 L 336.40 180.96" fill="#2a8ef2" fill-rule="evenodd" group-id="1,2,4" id="Fill-123" node-id="52" stroke="none" target-height="0.19999695" target-width="179.7" target-x="156.7" target-y="180.86"></path><path d="M 276.70 214.36 L 276.83 213.74 L 277.16 213.27 L 277.66 212.97 L 278.30 212.86 L 278.99 213.00 L 279.50 213.36 L 279.10 213.66 L 278.74 213.44 L 278.30 213.36 L 277.52 213.64 L 277.29 213.95 L 277.20 214.36 L 277.48 215.08 L 278.30 215.36 L 278.74 215.28 L 279.10 215.06 L 279.50 215.36 L 278.99 215.72 L 278.30 215.86 L 277.66 215.75 L 277.16 215.45 L 276.83 214.98 L 276.70 214.36" fill="#2a8ef2" fill-rule="evenodd" group-id="1,2,4" id="Fill-125" node-id="53" stroke="none" target-height="3" target-width="2.7999878" target-x="276.7" target-y="212.86"></path><path d="M 281.30 215.06 L 281.30 214.76 L 280.80 214.76 L 280.48 214.85 L 280.40 215.06 L 280.48 215.28 L 280.80 215.36 L 281.07 215.37 L 281.30 215.06 Z M 281.80 214.46 L 281.80 215.86 L 281.30 215.86 L 281.30 215.56 L 281.09 215.77 L 280.60 215.86 L 280.00 215.65 L 279.80 215.16 L 279.96 214.69 L 280.70 214.46 L 281.20 214.46 L 281.20 214.46 L 281.06 214.10 L 280.70 213.96 L 280.10 214.16 L 279.90 213.76 L 280.31 213.54 L 280.80 213.46 L 281.33 213.53 L 281.65 213.83 L 281.80 214.46 L 281.80 214.46 Z" fill="#2a8ef2" fill-rule="evenodd" group-id="1,2,4" id="Fill-126" node-id="54" stroke="none" target-height="2.399994" target-width="2" target-x="279.8" target-y="213.46"></path><path d="M 284.70 214.46 L 284.70 215.86 L 284.20 215.86 L 284.20 214.56 L 284.05 214.10 L 283.70 213.96 L 283.26 214.11 L 283.10 214.66 L 283.10 215.86 L 282.60 215.86 L 282.60 213.46 L 283.10 213.46 L 283.10 213.76 L 283.46 213.54 L 283.90 213.46 L 284.19 213.48 L 284.45 213.66 L 284.70 214.46" fill="#2a8ef2" fill-rule="evenodd" group-id="1,2,4" id="Fill-127" node-id="55" stroke="none" target-height="2.399994" target-width="2.100006" target-x="282.6" target-y="213.46"></path><path d="M 285.20 214.66 L 285.37 214.03 L 285.77 213.64 L 286.50 213.46 L 287.12 213.62 L 287.50 214.06 L 287.10 214.36 L 286.89 214.14 L 286.50 214.06 L 286.00 214.26 L 285.80 214.76 L 286.01 215.30 L 286.50 215.46 L 287.10 215.16 L 287.50 215.46 L 287.12 215.91 L 286.50 216.06 L 285.59 215.55 L 285.31 215.15 L 285.20 214.66" fill="#2a8ef2" fill-rule="evenodd" group-id="1,2,4" id="Fill-128" node-id="56" stroke="none" target-height="2.5999908" target-width="2.2999878" target-x="285.2" target-y="213.46"></path><path d="M 288.20 214.46 L 289.50 214.46 L 289.31 214.06 L 288.80 213.86 L 288.44 214.00 L 288.20 214.46 Z M 290.10 214.76 L 288.20 214.76 L 288.48 215.17 L 289.00 215.36 L 289.39 215.28 L 289.60 215.06 L 289.90 215.36 L 289.54 215.66 L 288.90 215.76 L 288.17 215.58 L 287.77 215.20 L 287.60 214.56 L 287.69 214.07 L 287.94 213.70 L 288.31 213.45 L 288.80 213.36 L 289.29 213.45 L 289.66 213.70 L 289.91 214.07 L 290.00 214.56 L 290.10 214.76 L 290.10 214.76 Z" fill="#2a8ef2" fill-rule="evenodd" group-id="1,2,4" id="Fill-129" node-id="57" stroke="none" target-height="2.399994" target-width="2.5" target-x="287.6" target-y="213.36"></path><path d="M 290.50 215.86 L 290.90 215.86 L 290.90 212.66 L 290.50 212.66 Z" fill="#2a8ef2" fill-rule="evenodd" group-id="1,2,4" id="Fill-130" node-id="58" stroke="none" target-height="3.199997" target-width="0.3999939" target-x="290.5" target-y="212.66"></path><path d="M 321.80 215.46 L 322.00 215.06 L 322.40 215.28 L 323.00 215.36 L 323.58 215.21 L 323.70 214.96 L 323.58 214.75 L 323.23 214.60 L 322.37 214.35 L 322.04 214.10 L 321.90 213.66 L 322.16 213.05 L 323.10 212.76 L 323.64 212.84 L 324.10 213.06 L 323.90 213.46 L 323.10 213.26 L 322.52 213.41 L 322.40 213.66 L 322.52 213.88 L 322.87 214.02 L 323.73 214.27 L 324.06 214.52 L 324.20 214.96 L 323.94 215.57 L 323.00 215.86 L 322.30 215.73 L 321.80 215.46" fill="#fffffe" fill-rule="evenodd" group-id="1,2,4" id="Fill-132" node-id="59" stroke="none" target-height="3.100006" target-width="2.4000244" target-x="321.8" target-y="212.76"></path><path d="M 326.00 215.06 L 326.00 214.76 L 325.50 214.76 L 325.18 214.85 L 325.10 215.06 L 325.18 215.28 L 325.50 215.36 L 325.77 215.37 L 326.00 215.06 Z M 326.50 214.46 L 326.50 215.86 L 326.00 215.86 L 326.00 215.56 L 325.79 215.77 L 325.30 215.86 L 324.70 215.65 L 324.50 215.16 L 324.66 214.69 L 325.40 214.46 L 325.90 214.46 L 325.90 214.46 L 325.76 214.10 L 325.40 213.96 L 324.80 214.16 L 324.60 213.76 L 325.01 213.54 L 325.50 213.46 L 326.03 213.53 L 326.35 213.83 L 326.50 214.46 L 326.50 214.46 Z" fill="#fffffe" fill-rule="evenodd" group-id="1,2,4" id="Fill-133" node-id="60" stroke="none" target-height="2.399994" target-width="2" target-x="324.5" target-y="213.46"></path><path d="M 329.80 214.46 L 331.10 214.46 L 330.91 214.06 L 330.40 213.86 L 330.04 214.00 L 329.80 214.46 Z M 331.70 214.76 L 329.80 214.76 L 330.08 215.17 L 330.60 215.36 L 330.99 215.28 L 331.20 215.06 L 331.50 215.36 L 331.14 215.66 L 330.50 215.76 L 329.77 215.58 L 329.37 215.20 L 329.20 214.56 L 329.29 214.07 L 329.54 213.70 L 329.91 213.45 L 330.40 213.36 L 330.89 213.45 L 331.26 213.70 L 331.51 214.07 L 331.60 214.56 L 331.70 214.76 L 331.70 214.76 Z" fill="#fffffe" fill-rule="evenodd" group-id="1,2,4" id="Fill-135" node-id="61" stroke="none" target-height="2.399994" target-width="2.5" target-x="329.2" target-y="213.36"></path><path d="M 135.00 61.46 L 364.30 61.46 L 364.30 54.46 L 364.01 52.33 L 363.20 50.43 L 361.95 48.81 L 360.33 47.56 L 358.44 46.75 L 356.30 46.46 L 135.00 46.46 L 135.00 46.46 L 135.00 61.46 Z" fill="#ebf0ff" fill-opacity="0.6" fill-rule="evenodd" group-id="1,2,4,18" id="Fill-136" node-id="62" stroke="none" target-height="15" target-width="229.29999" target-x="135" target-y="46.46"></path><path d="M 147.10 53.66 L 146.89 54.72 L 146.31 55.57 L 145.46 56.15 L 144.40 56.36 L 143.35 56.15 L 142.54 55.57 L 142.00 54.73 L 141.80 53.66 L 142.01 52.60 L 142.57 51.75 L 143.40 51.17 L 144.40 50.96 L 145.41 51.17 L 146.28 51.75 L 146.87 52.60 L 147.10 53.66" fill="#fffffe" fill-rule="evenodd" group-id="1,2,4" id="Fill-137" node-id="63" stroke="none" target-height="5.4000015" target-width="5.300003" target-x="141.8" target-y="50.96"></path><path d="M 155.80 53.66 L 155.59 54.72 L 155.01 55.57 L 154.16 56.15 L 153.10 56.36 L 152.04 56.15 L 151.19 55.57 L 150.61 54.72 L 150.40 53.66 L 150.61 52.60 L 151.19 51.75 L 152.04 51.18 L 153.10 50.96 L 154.16 51.18 L 155.01 51.75 L 155.59 52.60 L 155.80 53.66" fill="#fffffe" fill-rule="evenodd" group-id="1,2,4" id="Fill-138" node-id="64" stroke="none" target-height="5.4000015" target-width="5.400009" target-x="150.4" target-y="50.96"></path><path d="M 164.60 53.66 L 164.39 54.72 L 163.81 55.57 L 162.96 56.15 L 161.90 56.36 L 160.84 56.15 L 159.99 55.57 L 159.41 54.72 L 159.20 53.66 L 159.41 52.60 L 159.99 51.75 L 160.84 51.18 L 161.90 50.96 L 162.96 51.18 L 163.81 51.75 L 164.39 52.60 L 164.60 53.66" fill="#fffffe" fill-rule="evenodd" group-id="1,2,4" id="Fill-139" node-id="65" stroke="none" target-height="5.4000015" target-width="5.400009" target-x="159.2" target-y="50.96"></path><path d="M 363.40 85.16 L 357.60 85.21 L 341.46 85.24 L 316.83 85.25 L 285.59 85.26 L 249.60 85.26 L 213.66 85.25 L 182.45 85.23 L 157.84 85.20 L 141.70 85.17 L 135.90 85.16 L 141.70 85.11 L 157.84 85.08 L 182.47 85.07 L 213.71 85.06 L 249.70 85.06 L 285.60 85.02 L 316.81 85.02 L 341.44 85.05 L 357.59 85.10 L 363.40 85.16" fill="#dfebf9" fill-rule="evenodd" group-id="1,2,4" id="Fill-140" node-id="66" stroke="none" target-height="0.2400055" target-width="227.5" target-x="135.9" target-y="85.02"></path><path d="M 160.10 144.96 L 160.01 145.45 L 159.76 145.82 L 159.39 146.07 L 158.90 146.16 L 158.41 146.07 L 158.04 145.82 L 157.79 145.45 L 157.70 144.96 L 157.79 144.47 L 158.04 144.10 L 158.41 143.85 L 158.90 143.76 L 159.39 143.85 L 159.76 144.10 L 160.01 144.47 L 160.10 144.96" fill="#2a8ef2" fill-rule="evenodd" group-id="1,2,4" node-id="247" stroke="none" target-height="2.4000092" target-width="2.4000092" target-x="157.7" target-y="143.76"></path><path d="M 164.30 144.96 L 164.21 145.45 L 163.96 145.82 L 163.59 146.07 L 163.10 146.16 L 162.61 146.07 L 162.24 145.82 L 161.99 145.45 L 161.90 144.96 L 161.99 144.47 L 162.24 144.10 L 162.61 143.85 L 163.10 143.76 L 163.59 143.85 L 163.96 144.10 L 164.21 144.47 L 164.30 144.96" fill="#2a8ef2" fill-rule="evenodd" group-id="1,2,4" node-id="249" stroke="none" target-height="2.4000092" target-width="2.4000092" target-x="161.9" target-y="143.76"></path><path d="M 168.30 144.96 L 168.21 145.45 L 167.96 145.82 L 167.59 146.07 L 167.10 146.16 L 166.61 146.07 L 166.24 145.82 L 165.99 145.45 L 165.90 144.96 L 165.99 144.47 L 166.24 144.10 L 166.61 143.85 L 167.10 143.76 L 167.54 143.85 L 167.93 144.10 L 168.19 144.47 L 168.30 144.96" fill="#2a8ef2" fill-rule="evenodd" group-id="1,2,4" id="Fill-143" node-id="69" stroke="none" target-height="2.4000092" target-width="2.4000092" target-x="165.9" target-y="143.76"></path><path d="M 329.40 213.56 L 328.40 215.86 L 327.80 215.86 L 326.80 213.56 L 327.40 213.56 L 328.10 215.26 L 328.90 213.56 L 329.40 213.56" fill="#fffffe" fill-rule="evenodd" group-id="1,2,4" id="Fill-134" node-id="70" stroke="none" target-height="2.300003" target-width="2.600006" target-x="326.8" target-y="213.56"></path><path d="M 179.90 75.26 L 179.50 76.86 L 178.90 78.16 L 178.00 77.56 L 178.50 76.46 L 178.90 75.06 L 179.90 75.26 Z M 181.60 74.66 L 181.60 76.96 L 181.52 77.51 L 181.30 77.96 L 180.60 78.66 L 179.80 78.96 L 179.60 77.96 L 180.30 77.66 L 180.60 77.06 L 180.60 74.76 L 178.40 74.76 L 178.40 73.66 L 180.60 73.66 L 180.60 72.76 L 178.10 72.76 L 178.10 71.66 L 179.20 71.66 L 178.80 70.46 L 179.80 70.16 L 180.30 71.66 L 181.70 71.66 L 182.20 70.16 L 183.20 70.46 L 182.80 71.66 L 183.90 71.66 L 183.90 72.76 L 181.70 72.76 L 181.70 73.66 L 183.60 73.66 L 183.60 74.76 L 181.60 74.76 Z M 183.60 69.86 L 178.40 69.86 L 178.40 68.86 L 180.30 68.86 L 180.20 68.16 L 181.20 67.96 L 181.40 68.86 L 183.60 68.86 L 183.60 69.86 Z M 183.80 77.16 L 182.90 77.56 L 181.90 75.26 L 182.90 74.86 L 183.80 77.16 Z M 188.90 72.66 L 187.80 72.66 L 187.80 78.66 L 186.70 78.66 L 186.70 72.66 L 185.20 72.66 L 185.20 75.66 L 184.99 77.14 L 184.40 78.66 L 183.60 78.16 L 184.11 76.84 L 184.30 75.66 L 184.30 69.26 L 184.50 68.86 L 184.90 68.66 L 187.30 68.66 L 187.88 68.58 L 188.50 68.26 L 189.10 69.16 L 188.18 69.57 L 187.40 69.66 L 185.60 69.66 L 185.60 71.46 L 189.20 71.46 L 189.20 72.66 Z" fill="#2a8ef2" fill-rule="nonzero" group-id="1,2,4,19" node-id="255" stroke="none" target-height="11" target-width="11.199997" target-x="178" target-y="67.96"></path><path d="M 194.40 77.46 L 200.80 77.46 L 200.80 78.46 L 194.40 78.46 L 193.12 78.24 L 192.10 77.66 L 191.43 78.33 L 190.60 78.86 L 190.10 77.96 L 190.78 77.53 L 191.30 76.96 L 190.60 75.76 L 190.20 74.66 L 191.20 74.46 L 191.80 75.96 L 192.20 74.56 L 192.30 73.26 L 190.70 73.26 L 190.30 73.06 L 190.20 72.66 L 190.20 72.56 L 190.30 72.26 L 191.90 69.66 L 190.10 69.66 L 190.10 68.56 L 192.80 68.56 L 193.10 68.66 L 193.30 68.86 L 193.40 69.16 L 193.30 69.46 L 191.60 72.16 L 192.80 72.16 L 193.20 72.26 L 193.40 72.56 L 193.40 73.16 L 193.20 75.06 L 192.97 75.95 L 192.60 76.76 L 193.53 77.31 L 194.40 77.46 Z M 200.80 70.26 L 200.80 71.36 L 200.00 71.36 L 200.00 72.46 L 199.90 72.86 L 199.50 73.06 L 197.30 73.06 L 197.30 73.76 L 200.20 73.76 L 200.20 74.86 L 197.30 74.86 L 197.30 75.56 L 200.50 75.56 L 200.50 76.66 L 197.30 76.66 L 197.30 77.36 L 196.30 77.36 L 196.30 76.66 L 193.60 76.66 L 193.60 75.56 L 196.30 75.56 L 196.30 74.86 L 193.90 74.86 L 193.90 73.76 L 196.30 73.76 L 196.30 73.06 L 194.00 73.06 L 194.00 71.96 L 196.20 71.96 L 196.20 71.46 L 193.50 71.46 L 193.50 70.36 L 196.20 70.36 L 196.20 69.86 L 194.00 69.86 L 194.00 68.76 L 196.20 68.76 L 196.20 68.16 L 197.20 68.16 L 197.20 68.76 L 199.40 68.76 L 199.80 68.86 L 200.00 69.16 L 200.00 70.26 L 200.80 70.26 Z M 197.30 70.26 L 199.00 70.26 L 199.00 69.76 L 197.30 69.76 L 197.30 70.26 Z M 198.90 71.36 L 197.20 71.36 L 197.20 71.86 L 198.90 71.86 L 198.90 71.36 Z" fill="#2a8ef2" fill-rule="nonzero" group-id="1,2,4,19" node-id="257" stroke="none" target-height="10.699997" target-width="10.699997" target-x="190.1" target-y="68.16"></path><path d="M 206.10 76.26 L 204.60 77.06 L 203.80 77.28 L 202.90 77.36 L 202.10 77.36 L 202.10 76.16 L 203.00 76.16 L 203.50 76.16 L 203.50 70.06 L 202.20 70.06 L 202.20 68.96 L 205.80 68.96 L 205.80 70.06 L 204.50 70.06 L 204.50 75.86 L 205.50 75.36 L 206.10 76.26 Z M 212.60 78.86 L 209.40 76.66 L 208.73 77.43 L 207.80 78.06 L 206.10 78.96 L 205.70 77.96 L 207.00 77.26 L 208.30 76.26 L 208.76 75.63 L 208.90 75.06 L 208.90 72.16 L 210.00 72.16 L 210.00 75.06 L 209.90 75.66 L 213.20 77.96 L 212.60 78.86 Z M 208.50 69.66 L 206.20 69.66 L 206.20 68.66 L 212.90 68.66 L 212.90 69.66 L 209.70 69.66 L 209.30 70.76 L 212.00 70.76 L 212.40 70.96 L 212.50 71.36 L 212.50 76.56 L 211.50 76.56 L 211.50 71.86 L 207.60 71.86 L 207.60 76.56 L 206.50 76.56 L 206.50 71.36 L 206.70 70.96 L 207.10 70.76 L 208.20 70.76 L 208.50 69.66 Z" fill="#2a8ef2" fill-rule="nonzero" group-id="1,2,4,19" node-id="259" stroke="none" target-height="10.299995" target-width="11.099991" target-x="202.1" target-y="68.66"></path><path d="M 223.30 68.46 L 223.50 68.86 L 223.50 78.36 L 222.40 78.36 L 222.40 77.96 L 216.30 77.96 L 216.30 78.26 L 215.20 78.26 L 215.20 68.76 L 215.40 68.36 L 215.80 68.16 L 223.00 68.16 L 223.30 68.46 Z M 216.30 69.36 L 216.30 71.26 L 222.40 71.26 L 222.40 69.36 L 216.30 69.36 Z M 216.30 72.36 L 216.30 74.16 L 222.40 74.16 L 222.40 72.36 L 216.30 72.36 Z M 222.40 76.96 L 222.40 75.16 L 216.30 75.16 L 216.30 76.96 L 222.40 76.96 Z" fill="#2a8ef2" fill-rule="nonzero" group-id="1,2,4,19" node-id="261" stroke="none" target-height="10.199997" target-width="8.300003" target-x="215.2" target-y="68.16"></path></g><g node-id="333"><g node-id="348"><path d="M 153.00 43.20 L 152.73 46.13 L 152.00 48.83 L 150.82 51.32 L 149.22 53.58 L 147.32 55.50 L 145.08 57.10 L 142.60 58.29 L 139.92 59.02 L 137.00 59.30 L 134.08 59.02 L 131.40 58.29 L 128.92 57.10 L 126.68 55.50 L 124.78 53.58 L 123.18 51.32 L 122.00 48.83 L 121.27 46.13 L 121.00 43.20 L 121.27 40.26 L 122.00 37.56 L 123.18 35.07 L 124.78 32.81 L 126.68 30.89 L 128.92 29.29 L 131.40 28.10 L 134.08 27.37 L 137.00 27.10 L 139.92 27.37 L 142.60 28.10 L 145.08 29.29 L 147.32 30.89 L 149.22 32.81 L 150.82 35.07 L 152.00 37.56 L 152.73 40.26 L 153.00 43.20 Z" fill="#ffffff" fill-rule="evenodd" group-id="1,2,5,20" id="椭圆形_1_" node-id="78" stroke="none" target-height="32.199997" target-width="32" target-x="121" target-y="27.1"></path><path d="M 137.00 60.20 L 133.89 59.90 L 131.05 59.12 L 128.41 57.85 L 126.03 56.15 L 124.01 54.11 L 122.32 51.71 L 121.06 49.06 L 120.29 46.20 L 120.00 43.10 L 120.29 39.99 L 121.06 37.14 L 122.32 34.51 L 124.01 32.12 L 126.03 30.10 L 128.41 28.41 L 131.05 27.16 L 133.89 26.38 L 137.00 26.10 L 140.11 26.39 L 142.95 27.17 L 145.59 28.44 L 147.97 30.14 L 149.99 32.18 L 151.68 34.58 L 152.94 37.23 L 153.71 40.09 L 154.00 43.20 L 153.71 46.30 L 152.94 49.15 L 151.68 51.78 L 149.99 54.17 L 147.97 56.19 L 145.59 57.88 L 142.95 59.13 L 140.11 59.91 L 137.00 60.20 Z M 137.00 28.10 L 134.26 28.35 L 131.75 29.04 L 129.42 30.17 L 127.32 31.67 L 125.53 33.47 L 124.04 35.59 L 122.94 37.93 L 122.25 40.45 L 122.00 43.20 L 122.25 45.94 L 122.94 48.46 L 124.04 50.80 L 125.53 52.92 L 127.32 54.72 L 129.42 56.22 L 131.75 57.35 L 134.26 58.04 L 137.00 58.30 L 139.74 58.04 L 142.25 57.35 L 144.58 56.22 L 146.68 54.72 L 148.47 52.92 L 149.96 50.80 L 151.06 48.46 L 151.75 45.94 L 152.00 43.20 L 151.75 40.45 L 151.06 37.93 L 149.96 35.59 L 148.47 33.47 L 146.68 31.67 L 144.58 30.17 L 142.25 29.04 L 139.74 28.35 L 137.00 28.10 Z" fill="#2a8ef2" fill-rule="nonzero" group-id="1,2,5,20" node-id="269" stroke="none" target-height="34.1" target-width="34" target-x="120" target-y="26.1"></path></g><path d="M 136.30 52.20 L 146.00 34.30 L 134.70 44.50 L 128.20 41.00 Z" fill="#afcdfb" fill-rule="evenodd" group-id="1,2,5" node-id="272" stroke="none" target-height="17.900002" target-width="17.800003" target-x="128.2" target-y="34.3"></path></g><g node-id="334"><g node-id="349"><path d="M 367.40 243.27 L 363.44 241.39 L 360.37 239.45 L 358.05 237.45 L 356.36 235.42 L 355.20 233.31 L 354.52 231.11 L 354.30 228.77 L 354.02 226.59 L 353.45 225.14 L 352.65 224.22 L 351.57 223.58 L 350.41 223.28 L 349.11 223.30 L 347.22 223.79 L 345.60 224.67 L 344.69 225.47 L 344.19 226.23 L 344.00 226.97 L 344.27 228.94 L 345.13 231.01 L 346.70 233.27 L 347.60 235.60 L 348.01 237.71 L 347.98 239.66 L 347.55 241.50 L 346.70 243.27 L 346.18 244.56 L 346.21 245.76 L 346.80 246.98 L 348.11 248.30 L 350.47 249.76 L 354.30 251.37 L 356.65 252.95 L 358.43 254.82 L 359.71 257.04 L 360.51 259.65 L 360.80 262.77 L 361.05 264.72 L 361.75 266.22 L 362.89 267.38 L 364.56 268.26 L 366.94 268.80 L 370.26 268.89 L 374.80 268.37 L 367.40 243.27 Z" fill="#ffffff" fill-rule="evenodd" group-id="1,2,6,21" id="路径-6_1_" node-id="83" stroke="none" target-height="45.610016" target-width="30.799988" target-x="344" target-y="223.28"></path><path d="M 369.00 269.17 L 366.01 268.94 L 363.84 268.31 L 362.30 267.37 L 361.25 266.17 L 360.62 264.67 L 360.40 262.77 L 360.12 259.69 L 359.35 257.11 L 358.10 254.93 L 356.38 253.10 L 354.10 251.57 L 350.80 250.22 L 348.59 248.99 L 346.87 247.55 L 346.00 246.17 L 345.83 245.18 L 345.96 244.20 L 346.40 243.17 L 347.34 241.00 L 347.67 238.70 L 347.39 236.19 L 346.40 233.37 L 344.84 231.13 L 343.98 229.02 L 343.70 226.97 L 343.94 226.05 L 344.66 225.09 L 345.68 224.28 L 346.97 223.59 L 348.38 223.14 L 349.80 222.97 L 351.06 223.11 L 352.11 223.55 L 353.00 224.27 L 353.73 225.36 L 354.21 226.82 L 354.40 228.77 L 354.60 230.92 L 355.20 232.96 L 356.21 234.92 L 357.68 236.82 L 360.03 238.99 L 363.22 241.08 L 367.40 243.07 L 367.50 243.07 L 367.50 243.17 L 375.00 268.67 L 374.70 268.67 L 371.61 269.08 L 369.00 269.17 Z M 349.90 223.47 L 348.51 223.63 L 347.20 224.05 L 346.02 224.68 L 345.13 225.40 L 344.50 226.23 L 344.30 226.97 L 344.57 228.87 L 345.40 230.89 L 346.90 233.07 L 346.90 233.17 L 347.80 235.52 L 348.21 237.68 L 348.19 239.69 L 347.75 241.61 L 346.90 243.47 L 346.40 244.79 L 346.50 246.07 L 347.15 247.17 L 348.47 248.37 L 350.73 249.71 L 354.30 251.17 L 356.69 252.78 L 358.50 254.70 L 359.80 256.97 L 360.61 259.66 L 360.90 262.87 L 361.12 264.65 L 361.69 266.02 L 362.60 267.07 L 364.16 267.98 L 366.45 268.57 L 369.72 268.73 L 374.30 268.27 L 367.10 243.47 L 363.18 241.59 L 360.13 239.64 L 357.81 237.63 L 356.11 235.56 L 354.94 233.42 L 354.24 231.17 L 354.00 228.77 L 353.85 227.00 L 353.40 225.67 L 352.70 224.67 L 351.90 224.01 L 350.98 223.61 L 349.90 223.47 Z" fill="#afcdfb" fill-rule="nonzero" group-id="1,2,6,21" node-id="279" stroke="none" target-height="46.200012" target-width="31.299988" target-x="343.7" target-y="222.97"></path></g><path d="M 373.10 253.07 L 367.08 251.10 L 362.33 249.06 L 358.66 246.98 L 355.88 244.88 L 353.84 242.77 L 352.43 240.62 L 351.56 238.42 L 351.18 236.13 L 351.30 233.67 L 351.80 233.77 L 351.70 236.12 L 352.07 238.33 L 352.93 240.45 L 354.31 242.53 L 356.30 244.59 L 359.02 246.65 L 362.63 248.69 L 367.29 250.71 L 373.20 252.67 L 373.10 253.07 Z" fill="#afcdfb" fill-rule="nonzero" group-id="1,2,6" node-id="282" stroke="none" target-height="19.40001" target-width="22.02002" target-x="351.18" target-y="233.67"></path><path d="M 377.00 244.87 L 381.58 243.85 L 385.55 242.51 L 388.99 240.88 L 391.96 238.96 L 394.50 236.77 L 396.59 234.40 L 397.96 232.37 L 399.91 228.94 L 400.83 227.77 L 401.88 227.17 L 403.18 227.11 L 405.40 227.77 L 407.25 228.82 L 408.25 229.94 L 408.62 231.15 L 408.41 232.59 L 407.45 234.41 L 405.40 236.77 L 404.68 237.92 L 404.05 239.81 L 403.59 242.71 L 403.40 246.97 L 403.25 248.59 L 402.59 249.97 L 401.38 251.17 L 399.43 252.22 L 396.50 253.07 L 394.18 253.79 L 392.12 254.89 L 390.29 256.38 L 388.65 258.32 L 387.20 260.77 L 385.56 263.69 L 383.97 265.61 L 382.75 266.60 L 381.34 267.37 L 379.73 267.90 L 377.03 268.33 L 373.30 268.47 L 371.95 268.24 L 371.03 267.62 L 370.41 266.56 L 370.14 264.86 L 370.36 262.25 L 371.35 258.34 L 373.43 252.72 L 377.00 244.87 Z" fill="#ffffff" fill-rule="evenodd" group-id="1,2,6,22" id="路径-4_1_" node-id="87" stroke="none" target-height="41.36" target-width="38.47998" target-x="370.14" target-y="227.11"></path><path d="M 373.40 268.67 L 372.14 268.49 L 371.24 268.02 L 370.60 267.27 L 370.16 266.21 L 369.96 264.68 L 370.12 262.51 L 370.77 259.50 L 371.97 255.79 L 373.91 250.92 L 376.80 244.67 L 376.90 244.57 L 377.00 244.57 L 381.52 243.56 L 385.46 242.22 L 388.88 240.58 L 391.84 238.67 L 394.40 236.47 L 395.98 234.72 L 397.14 233.14 L 398.90 230.17 L 400.41 227.76 L 401.28 227.01 L 402.35 226.66 L 403.62 226.73 L 405.60 227.37 L 407.42 228.36 L 408.45 229.46 L 408.90 230.67 L 408.90 231.82 L 408.45 233.16 L 407.42 234.79 L 405.60 236.77 L 404.93 237.86 L 404.34 239.69 L 403.90 242.57 L 403.70 246.87 L 403.53 248.59 L 402.84 250.03 L 401.59 251.27 L 399.59 252.34 L 396.60 253.17 L 394.32 253.87 L 392.31 254.95 L 390.51 256.42 L 388.91 258.34 L 387.50 260.77 L 385.75 263.85 L 384.09 265.84 L 382.81 266.86 L 381.37 267.62 L 379.74 268.14 L 377.05 268.55 L 373.40 268.67 Z M 377.20 245.07 L 373.88 252.35 L 371.85 257.69 L 370.80 261.50 L 370.44 264.14 L 370.56 265.91 L 371.00 267.07 L 371.58 267.70 L 372.36 268.06 L 373.40 268.17 L 377.21 268.02 L 379.89 267.56 L 381.48 267.00 L 382.84 266.24 L 384.01 265.26 L 385.53 263.37 L 387.10 260.57 L 388.56 258.08 L 390.23 256.11 L 392.10 254.59 L 394.21 253.49 L 396.60 252.77 L 399.47 251.99 L 401.36 251.00 L 402.54 249.85 L 403.16 248.54 L 403.30 246.97 L 403.49 242.56 L 403.96 239.59 L 404.58 237.70 L 405.30 236.57 L 407.05 234.65 L 408.02 233.12 L 408.42 231.89 L 408.40 230.87 L 407.99 229.86 L 407.06 228.90 L 405.40 227.97 L 403.62 227.38 L 402.49 227.29 L 401.53 227.58 L 400.75 228.26 L 399.30 230.57 L 397.52 233.55 L 396.34 235.15 L 394.70 236.97 L 392.09 239.17 L 389.09 241.09 L 385.65 242.72 L 381.70 244.06 L 377.20 245.07 Z" fill="#afcdfb" fill-rule="nonzero" group-id="1,2,6,22" node-id="287" stroke="none" target-height="42.01001" target-width="38.940002" target-x="369.96" target-y="226.66"></path><path d="M 373.50 266.77 L 372.95 263.64 L 372.93 260.98 L 373.36 258.72 L 374.20 256.77 L 375.45 255.18 L 377.12 253.82 L 379.30 252.67 L 382.10 251.77 L 385.80 250.63 L 389.09 249.11 L 392.03 247.20 L 394.65 244.89 L 396.97 242.17 L 399.00 238.97 L 399.40 239.17 L 397.34 242.41 L 394.99 245.19 L 392.33 247.54 L 389.34 249.50 L 385.98 251.08 L 382.20 252.27 L 379.47 253.16 L 377.36 254.26 L 375.77 255.57 L 374.60 257.07 L 373.82 258.88 L 373.42 261.02 L 373.45 263.59 L 374.00 266.67 L 373.50 266.77 Z" fill="#afcdfb" fill-rule="nonzero" group-id="1,2,6" node-id="290" stroke="none" target-height="27.799988" target-width="26.470001" target-x="372.93" target-y="238.97"></path><path d="M 373.80 184.97 L 376.03 184.94 L 378.04 185.17 L 379.85 185.80 L 381.30 186.87 L 382.82 188.87 L 383.70 191.01 L 384.00 193.37 L 383.74 195.78 L 382.88 198.52 L 381.30 201.67 L 380.61 205.48 L 380.51 208.78 L 380.90 211.67 L 381.83 214.48 L 383.26 216.99 L 385.20 219.27 L 386.30 220.65 L 387.36 222.67 L 388.33 225.51 L 389.00 228.42 L 389.48 231.75 L 389.73 235.54 L 389.72 239.33 L 389.41 243.20 L 388.80 247.17 L 387.76 251.43 L 386.32 255.47 L 384.43 259.27 L 382.08 262.64 L 380.24 264.64 L 378.15 266.38 L 375.80 267.87 L 374.71 268.24 L 373.59 268.30 L 372.45 268.10 L 371.30 267.67 L 370.13 266.96 L 368.95 265.99 L 367.88 264.83 L 366.90 263.47 L 365.49 260.66 L 364.60 257.42 L 364.38 255.17 L 364.50 252.87 L 365.00 250.47 L 366.18 245.49 L 366.67 241.49 L 366.68 237.77 L 366.33 235.02 L 365.68 232.62 L 365.00 231.17 L 364.30 230.17 L 363.90 229.67 L 360.84 225.56 L 359.39 223.01 L 358.30 220.17 L 357.92 218.26 L 357.88 216.24 L 358.23 214.21 L 359.10 212.07 L 360.76 209.12 L 362.00 207.42 L 363.26 206.08 L 364.30 205.17 L 365.24 204.35 L 366.19 203.30 L 367.03 201.99 L 368.00 199.77 L 368.52 197.94 L 368.80 196.09 L 369.00 192.47 L 369.20 189.16 L 369.49 187.75 L 370.00 186.67 L 370.55 185.95 L 371.34 185.41 L 372.33 185.10 L 373.80 184.97 Z" fill="#ffffff" fill-rule="evenodd" group-id="1,2,6,23" id="路径-2_1_" node-id="91" stroke="none" target-height="83.359985" target-width="31.850006" target-x="357.88" target-y="184.94"></path><path d="M 373.80 268.57 L 372.47 268.41 L 371.20 267.87 L 369.58 266.88 L 368.09 265.47 L 366.70 263.57 L 365.60 261.53 L 364.81 259.38 L 364.32 257.12 L 364.16 254.82 L 364.32 252.58 L 364.80 250.37 L 365.97 245.35 L 366.44 241.36 L 366.44 237.65 L 366.09 234.96 L 365.44 232.62 L 364.80 231.27 L 364.10 230.27 L 363.70 229.77 L 360.64 225.61 L 359.20 223.06 L 358.10 220.17 L 357.71 217.98 L 357.71 215.90 L 358.11 213.87 L 358.90 211.87 L 360.62 208.91 L 361.88 207.17 L 364.10 204.87 L 365.94 203.05 L 366.74 201.78 L 367.70 199.57 L 368.22 197.75 L 368.50 195.94 L 368.70 192.37 L 368.70 192.27 L 368.91 189.00 L 369.23 187.61 L 369.80 186.47 L 370.71 185.55 L 372.02 184.97 L 373.90 184.77 L 376.72 184.76 L 378.85 185.14 L 380.43 185.82 L 381.60 186.77 L 383.15 188.84 L 384.07 191.05 L 384.40 193.47 L 384.14 195.91 L 383.25 198.68 L 381.60 201.87 L 380.95 205.56 L 380.84 208.80 L 381.20 211.67 L 382.10 214.44 L 383.52 216.92 L 385.50 219.17 L 386.50 220.39 L 387.42 221.99 L 388.24 224.04 L 389.13 227.33 L 389.75 231.20 L 390.05 235.22 L 390.06 239.37 L 389.77 243.48 L 389.20 247.27 L 388.18 251.45 L 387.01 254.93 L 385.71 257.78 L 384.13 260.51 L 382.54 262.71 L 380.96 264.47 L 378.34 266.71 L 376.00 268.17 L 373.80 268.57 Z M 373.80 185.27 L 372.09 185.47 L 370.90 185.98 L 370.10 186.77 L 369.59 187.84 L 369.30 189.20 L 369.10 192.37 L 369.10 192.47 L 368.90 196.14 L 368.62 198.03 L 368.10 199.87 L 367.13 202.15 L 366.27 203.49 L 365.30 204.55 L 364.30 205.37 L 363.27 206.29 L 362.05 207.61 L 360.84 209.29 L 359.20 212.17 L 358.46 214.07 L 358.10 215.99 L 358.11 217.98 L 358.50 220.07 L 359.53 222.83 L 360.95 225.32 L 364.00 229.37 L 364.40 229.87 L 365.10 230.87 L 365.86 232.42 L 366.48 234.73 L 366.88 238.04 L 366.85 241.32 L 366.34 245.39 L 365.20 250.37 L 364.76 252.52 L 364.62 254.70 L 364.80 256.92 L 365.28 259.11 L 366.04 261.18 L 367.10 263.17 L 368.07 264.53 L 369.10 265.67 L 370.24 266.62 L 371.40 267.27 L 372.95 267.78 L 374.36 267.84 L 375.70 267.47 L 377.95 266.06 L 380.51 263.87 L 382.07 262.16 L 383.63 259.99 L 385.19 257.31 L 386.46 254.50 L 387.61 251.09 L 388.60 246.97 L 389.20 242.87 L 389.50 238.94 L 389.49 235.17 L 389.00 229.69 L 388.07 225.28 L 387.12 222.51 L 386.12 220.57 L 385.10 219.27 L 383.08 216.91 L 381.63 214.36 L 380.70 211.57 L 380.31 208.60 L 380.42 205.26 L 381.10 201.47 L 381.10 201.37 L 382.68 198.28 L 383.54 195.61 L 383.80 193.27 L 383.50 190.98 L 382.65 188.90 L 381.20 186.97 L 379.95 186.09 L 378.29 185.49 L 376.37 185.22 L 373.80 185.27 L 373.80 185.27 Z" fill="#afcdfb" fill-rule="nonzero" group-id="1,2,6,23" node-id="295" stroke="none" target-height="83.81001" target-width="32.350006" target-x="357.71" target-y="184.76"></path><path d="M 375.00 196.87 L 375.50 197.57 L 374.31 200.61 L 373.48 204.16 L 373.05 208.31 L 373.10 213.15 L 373.69 218.80 L 374.92 225.37 L 376.90 232.97 L 377.10 233.47 L 377.10 233.47 L 377.75 238.77 L 377.93 244.55 L 377.60 250.86 L 376.71 257.74 L 375.20 265.27 L 375.00 265.67 L 374.40 265.27 L 375.96 257.86 L 376.89 251.09 L 377.26 244.91 L 377.11 239.25 L 376.50 234.07 L 376.50 233.87 L 376.40 233.47 L 374.41 225.81 L 373.16 219.15 L 372.56 213.38 L 372.52 208.40 L 372.94 204.09 L 373.79 200.38 L 375.00 197.17 L 375.00 196.87 Z" fill="#afcdfb" fill-rule="nonzero" group-id="1,2,6" id="路径-3" node-id="93" stroke="none" target-height="68.80002" target-width="5.4100037" target-x="372.52" target-y="196.87"></path></g><g node-id="335"><g node-id="352"><path d="M 70.60 243.27 L 74.56 241.39 L 77.63 239.45 L 79.95 237.45 L 81.64 235.42 L 82.80 233.31 L 83.48 231.11 L 83.70 228.77 L 83.98 226.59 L 84.55 225.14 L 85.35 224.22 L 86.43 223.58 L 87.59 223.28 L 88.89 223.30 L 90.78 223.79 L 92.40 224.67 L 93.31 225.47 L 93.81 226.23 L 94.00 226.97 L 93.73 228.94 L 92.87 231.01 L 91.30 233.27 L 90.40 235.60 L 89.99 237.71 L 90.02 239.66 L 90.45 241.50 L 91.30 243.27 L 91.82 244.56 L 91.79 245.76 L 91.20 246.98 L 89.89 248.30 L 87.53 249.76 L 83.70 251.37 L 81.35 252.95 L 79.57 254.82 L 78.29 257.04 L 77.49 259.65 L 77.20 262.77 L 76.95 264.72 L 76.25 266.22 L 75.11 267.38 L 73.44 268.26 L 71.06 268.80 L 67.74 268.89 L 63.20 268.37 L 70.60 243.27 Z" fill="#ffffff" fill-rule="evenodd" group-id="1,2,7,24" node-id="304" stroke="none" target-height="45.610016" target-width="30.8" target-x="63.2" target-y="223.28"></path><path d="M 68.90 269.17 L 66.34 269.05 L 63.20 268.67 L 62.90 268.67 L 70.30 243.17 L 70.40 243.17 L 74.30 241.30 L 77.33 239.38 L 79.63 237.41 L 81.31 235.39 L 82.47 233.32 L 83.16 231.17 L 83.40 228.87 L 83.59 226.92 L 84.07 225.46 L 84.80 224.37 L 85.68 223.68 L 86.74 223.25 L 88.00 223.07 L 89.46 223.24 L 90.87 223.69 L 92.16 224.38 L 93.16 225.19 L 93.87 226.15 L 94.10 227.07 L 93.82 229.12 L 92.96 231.23 L 91.40 233.47 L 90.41 236.25 L 90.13 238.75 L 90.46 241.06 L 91.40 243.27 L 91.84 244.30 L 91.97 245.28 L 91.80 246.27 L 91.10 247.51 L 89.71 248.80 L 87.36 250.20 L 83.70 251.67 L 81.42 253.20 L 79.70 255.03 L 78.45 257.21 L 77.68 259.79 L 77.40 262.87 L 77.18 264.77 L 76.55 266.27 L 75.50 267.47 L 74.09 268.33 L 71.97 268.93 L 68.90 269.17 Z M 63.70 268.27 L 68.23 268.73 L 71.49 268.58 L 73.80 267.99 L 75.40 267.07 L 76.31 265.97 L 76.88 264.60 L 77.10 262.87 L 77.39 259.70 L 78.20 257.02 L 79.50 254.75 L 81.31 252.81 L 83.70 251.17 L 87.30 249.71 L 89.56 248.36 L 90.87 247.13 L 91.50 245.97 L 91.67 245.17 L 91.55 244.32 L 91.10 243.37 L 90.25 241.54 L 89.82 239.64 L 89.79 237.63 L 90.20 235.46 L 91.10 233.07 L 91.10 232.97 L 92.60 230.79 L 93.43 228.77 L 93.70 226.87 L 93.50 226.13 L 92.87 225.30 L 91.98 224.58 L 90.80 223.95 L 89.49 223.53 L 88.10 223.37 L 86.54 223.77 L 85.30 224.67 L 84.64 225.66 L 84.19 227.00 L 84.00 228.77 L 83.77 231.17 L 83.07 233.41 L 81.89 235.55 L 80.18 237.62 L 77.84 239.63 L 74.76 241.58 L 70.80 243.47 L 63.70 268.27 Z" fill="#afcdfb" fill-rule="nonzero" group-id="1,2,7,24" node-id="306" stroke="none" target-height="46.100006" target-width="31.199997" target-x="62.9" target-y="223.07"></path></g><path d="M 64.90 253.07 L 64.80 252.57 L 70.72 250.63 L 75.39 248.63 L 79.00 246.58 L 81.72 244.52 L 83.71 242.47 L 85.09 240.39 L 85.94 238.28 L 86.31 236.09 L 86.20 233.77 L 86.70 233.67 L 86.82 236.13 L 86.44 238.42 L 85.57 240.62 L 84.16 242.77 L 82.12 244.88 L 79.34 246.98 L 75.67 249.06 L 70.92 251.10 L 64.90 253.07 Z" fill="#afcdfb" fill-rule="nonzero" group-id="1,2,7" node-id="309" stroke="none" target-height="19.40001" target-width="22.019997" target-x="64.8" target-y="233.67"></path><path d="M 61.00 244.87 L 56.42 243.85 L 52.45 242.51 L 49.01 240.88 L 46.04 238.96 L 43.50 236.77 L 41.41 234.40 L 40.04 232.37 L 38.09 228.94 L 37.17 227.77 L 36.12 227.17 L 34.82 227.11 L 32.60 227.77 L 30.75 228.82 L 29.75 229.94 L 29.38 231.15 L 29.59 232.59 L 30.55 234.41 L 32.60 236.77 L 33.32 237.92 L 33.95 239.81 L 34.41 242.71 L 34.60 246.97 L 34.75 248.59 L 35.41 249.97 L 36.62 251.17 L 38.57 252.22 L 41.50 253.07 L 43.82 253.79 L 45.88 254.89 L 47.71 256.38 L 49.35 258.32 L 50.80 260.77 L 52.44 263.69 L 54.03 265.61 L 55.25 266.60 L 56.66 267.37 L 58.27 267.90 L 60.97 268.33 L 64.70 268.47 L 66.05 268.24 L 66.97 267.62 L 67.59 266.56 L 67.86 264.86 L 67.64 262.25 L 66.65 258.34 L 64.57 252.72 L 61.00 244.87 Z" fill="#ffffff" fill-rule="evenodd" group-id="1,2,7,25" node-id="313" stroke="none" target-height="41.36" target-width="38.480003" target-x="29.38" target-y="227.11"></path><path d="M 64.60 268.67 L 60.91 268.55 L 58.19 268.14 L 56.54 267.62 L 55.10 266.86 L 53.81 265.84 L 52.15 263.85 L 50.40 260.77 L 49.00 258.37 L 47.40 256.47 L 45.60 254.99 L 43.58 253.89 L 41.30 253.17 L 38.31 252.34 L 36.31 251.27 L 35.06 250.03 L 34.37 248.59 L 34.20 246.87 L 34.04 242.68 L 33.61 239.81 L 33.00 237.93 L 32.30 236.77 L 30.47 234.78 L 29.47 233.16 L 29.06 231.82 L 29.10 230.67 L 29.57 229.53 L 30.60 228.44 L 32.40 227.37 L 34.38 226.73 L 35.67 226.66 L 36.76 227.01 L 37.63 227.76 L 38.34 228.79 L 39.10 230.17 L 40.83 233.10 L 41.97 234.66 L 43.60 236.47 L 46.16 238.67 L 49.12 240.58 L 52.54 242.22 L 56.48 243.56 L 61.00 244.57 L 61.10 244.57 L 61.20 244.67 L 64.62 252.12 L 66.69 257.59 L 67.74 261.51 L 68.07 264.23 L 67.90 266.06 L 67.40 267.27 L 66.76 268.02 L 65.86 268.49 L 64.60 268.67 Z M 35.30 227.27 L 34.20 227.41 L 32.60 227.97 L 30.94 228.90 L 30.01 229.86 L 29.60 230.87 L 29.61 231.89 L 30.02 233.12 L 30.98 234.65 L 32.70 236.57 L 33.45 237.77 L 34.09 239.71 L 34.54 242.66 L 34.70 246.97 L 34.84 248.54 L 35.46 249.85 L 36.64 251.00 L 38.53 251.99 L 41.40 252.77 L 43.79 253.51 L 45.90 254.64 L 47.78 256.16 L 49.44 258.11 L 50.90 260.57 L 52.47 263.36 L 54.01 265.26 L 55.19 266.24 L 56.56 267.01 L 58.16 267.56 L 60.84 268.02 L 64.60 268.17 L 65.65 268.03 L 66.42 267.66 L 67.00 267.07 L 67.44 265.91 L 67.56 264.14 L 67.20 261.50 L 66.15 257.69 L 64.12 252.35 L 60.80 245.07 L 56.23 244.06 L 52.26 242.71 L 48.82 241.06 L 45.85 239.11 L 43.30 236.87 L 41.66 235.05 L 40.48 233.45 L 38.70 230.47 L 37.90 229.06 L 37.23 228.12 L 36.41 227.50 L 35.30 227.27 Z" fill="#afcdfb" fill-rule="nonzero" group-id="1,2,7,25" node-id="315" stroke="none" target-height="42.01001" target-width="39.010002" target-x="29.06" target-y="226.66"></path><path d="M 64.50 266.77 L 64.00 266.67 L 64.55 263.59 L 64.57 261.03 L 64.13 258.89 L 63.30 257.07 L 62.10 255.56 L 60.49 254.25 L 58.39 253.15 L 55.70 252.27 L 51.93 251.13 L 48.58 249.58 L 45.59 247.63 L 42.92 245.27 L 40.57 242.46 L 38.50 239.17 L 38.90 238.97 L 40.91 242.16 L 43.21 244.88 L 45.82 247.19 L 48.76 249.10 L 52.07 250.63 L 55.80 251.77 L 58.64 252.68 L 60.83 253.83 L 62.49 255.19 L 63.70 256.77 L 64.59 258.69 L 65.05 260.94 L 65.05 263.60 L 64.50 266.77 Z" fill="#afcdfb" fill-rule="nonzero" group-id="1,2,7" node-id="318" stroke="none" target-height="27.799988" target-width="26.550003" target-x="38.5" target-y="238.97"></path><path d="M 56.50 186.77 L 54.99 188.75 L 54.09 190.85 L 53.73 193.13 L 53.95 195.66 L 54.82 198.55 L 56.50 201.87 L 57.17 205.66 L 57.25 208.99 L 56.82 211.94 L 55.90 214.59 L 54.51 216.99 L 52.60 219.17 L 51.63 220.35 L 50.68 222.03 L 49.78 224.33 L 48.84 228.02 L 48.20 232.57 L 47.99 237.34 L 48.24 242.47 L 48.99 247.61 L 50.30 252.65 L 51.52 255.89 L 53.02 258.90 L 54.79 261.68 L 56.89 264.21 L 59.32 266.36 L 62.10 268.17 L 63.61 268.60 L 65.14 268.54 L 66.75 267.99 L 68.23 267.08 L 69.64 265.80 L 71.00 264.11 L 72.10 262.24 L 72.97 260.15 L 73.60 257.81 L 73.89 255.41 L 73.80 252.95 L 73.30 250.37 L 72.16 245.44 L 71.68 241.47 L 71.66 237.77 L 71.99 235.05 L 72.63 232.67 L 73.30 231.27 L 75.49 228.48 L 76.97 226.50 L 78.50 224.04 L 79.70 221.35 L 80.39 218.41 L 80.45 216.40 L 80.07 214.31 L 79.20 212.07 L 77.51 209.14 L 76.26 207.42 L 75.00 206.06 L 74.00 205.17 L 72.11 203.30 L 71.29 202.01 L 70.30 199.77 L 69.63 197.20 L 69.38 194.60 L 69.20 189.76 L 68.83 187.69 L 68.05 186.18 L 67.25 185.47 L 66.02 184.98 L 64.20 184.77 L 61.90 184.69 L 59.86 184.95 L 58.02 185.62 L 56.50 186.77 Z" fill="#ffffff" fill-rule="evenodd" group-id="1,2,7,26" node-id="322" stroke="none" target-height="83.91" target-width="32.459995" target-x="47.99" target-y="184.69"></path><path d="M 64.20 268.77 L 63.06 268.64 L 62.00 268.27 L 59.64 266.79 L 57.58 265.12 L 55.81 263.25 L 53.54 260.14 L 51.77 256.86 L 50.40 253.46 L 49.43 250.23 L 48.72 247.07 L 48.30 244.47 L 47.87 239.16 L 47.94 233.97 L 48.51 228.96 L 49.46 224.78 L 50.40 222.15 L 51.42 220.23 L 52.50 218.87 L 54.37 216.74 L 55.73 214.39 L 56.63 211.80 L 57.05 208.89 L 56.97 205.61 L 56.30 201.87 L 54.62 198.52 L 53.75 195.60 L 53.54 193.04 L 53.92 190.72 L 54.85 188.59 L 56.40 186.57 L 57.62 185.57 L 59.26 184.85 L 61.44 184.46 L 64.30 184.47 L 65.97 184.64 L 67.16 185.02 L 67.99 185.59 L 68.90 186.82 L 69.41 188.46 L 69.62 190.29 L 69.70 192.37 L 69.90 195.92 L 70.18 197.71 L 70.70 199.47 L 71.64 201.61 L 72.41 202.86 L 73.29 203.86 L 74.20 204.67 L 75.18 205.54 L 76.47 206.94 L 77.77 208.70 L 79.50 211.67 L 80.27 213.57 L 80.68 215.37 L 80.76 217.11 L 80.42 219.70 L 79.62 222.11 L 78.50 224.37 L 77.25 226.34 L 74.80 229.47 L 73.50 231.07 L 72.87 232.38 L 72.23 234.69 L 71.90 237.35 L 71.90 241.03 L 72.36 245.00 L 73.50 249.97 L 73.96 252.24 L 74.12 254.42 L 73.97 256.54 L 73.29 259.62 L 72.16 262.34 L 70.62 264.74 L 68.90 266.57 L 67.71 267.62 L 66.55 268.27 L 65.33 268.66 L 64.20 268.77 Z M 62.70 184.87 L 60.01 185.11 L 58.11 185.81 L 56.80 186.87 L 56.80 186.87 L 55.34 188.80 L 54.45 190.85 L 54.11 193.08 L 54.31 195.56 L 55.16 198.40 L 56.80 201.67 L 56.80 201.77 L 57.47 205.59 L 57.55 208.95 L 57.10 211.93 L 56.17 214.62 L 54.75 217.05 L 52.80 219.27 L 51.72 220.60 L 50.71 222.48 L 49.78 225.05 L 48.86 229.16 L 48.32 234.10 L 48.26 239.21 L 48.70 244.47 L 49.12 247.03 L 49.83 250.14 L 50.79 253.32 L 52.15 256.66 L 53.89 259.88 L 56.12 262.94 L 57.87 264.77 L 59.89 266.42 L 62.20 267.87 L 63.68 268.29 L 65.28 268.19 L 66.85 267.60 L 68.50 266.47 L 70.18 264.70 L 71.69 262.37 L 72.80 259.73 L 73.48 256.75 L 73.62 254.69 L 73.46 252.57 L 73.00 250.37 L 71.96 246.06 L 71.42 242.58 L 71.27 239.81 L 71.49 235.90 L 72.00 233.50 L 72.70 231.59 L 73.00 231.07 L 74.30 229.37 L 76.75 226.15 L 77.97 224.21 L 79.04 222.04 L 79.79 219.73 L 80.11 217.27 L 80.02 215.61 L 79.63 213.89 L 78.90 212.07 L 77.24 209.12 L 76.00 207.42 L 74.74 206.08 L 73.70 205.17 L 72.76 204.35 L 71.81 203.30 L 70.97 201.99 L 70.00 199.77 L 69.48 197.94 L 69.20 196.09 L 69.00 192.47 L 68.82 188.57 L 68.38 187.04 L 67.58 185.94 L 66.83 185.45 L 65.75 185.11 L 64.20 184.97 L 62.70 184.87 Z" fill="#afcdfb" fill-rule="nonzero" group-id="1,2,7,26" node-id="324" stroke="none" target-height="84.30998" target-width="32.890003" target-x="47.87" target-y="184.46"></path><path d="M 63.80 265.47 L 61.56 259.05 L 60.09 253.16 L 59.31 247.73 L 59.14 242.71 L 59.55 238.04 L 60.50 233.67 L 63.21 227.52 L 65.11 222.08 L 66.32 217.27 L 66.92 213.02 L 66.99 209.24 L 66.59 205.87 L 65.77 202.86 L 64.54 200.14 L 62.90 197.67 L 63.30 197.37 L 64.97 199.91 L 66.22 202.70 L 67.06 205.79 L 67.47 209.22 L 67.40 213.06 L 66.81 217.37 L 65.61 222.22 L 63.71 227.70 L 61.00 233.87 L 60.09 238.17 L 59.71 242.77 L 59.88 247.73 L 60.66 253.09 L 62.11 258.92 L 64.30 265.27 L 63.80 265.47 Z" fill="#afcdfb" fill-rule="nonzero" group-id="1,2,7" node-id="327" stroke="none" target-height="68.100006" target-width="8.330002" target-x="59.14" target-y="197.37"></path></g><g node-id="336"><g node-id="355"><path d="M 119.98 239.92 L 123.28 268.62 L 149.38 268.52 L 137.28 256.72 L 135.18 241.42 L 119.98 239.92" fill="#001e48" fill-rule="evenodd" group-id="1,2,8,27" id="Fill-158" node-id="109" stroke="none" target-height="28.699997" target-width="29.400002" target-x="119.98" target-y="239.92"></path><path d="M 131.28 260.22 L 130.88 259.32 L 136.88 256.42 L 137.28 257.32 L 131.28 260.22" fill="#ffffff" fill-rule="evenodd" group-id="1,2,8,27" id="Fill-159" node-id="110" stroke="none" target-height="3.7999878" target-width="6.399994" target-x="130.88" target-y="256.42"></path><path d="M 94.78 239.92 L 93.68 268.42 L 64.98 268.42 L 77.68 256.72 L 78.88 240.82 L 94.78 239.92" fill="#001e48" fill-rule="evenodd" group-id="1,2,8,27" id="Fill-160" node-id="111" stroke="none" target-height="28.500015" target-width="29.799995" target-x="64.98" target-y="239.92"></path><path d="M 83.38 260.22 L 77.38 257.32 L 77.78 256.42 L 83.78 259.32 L 83.38 260.22" fill="#ffffff" fill-rule="evenodd" group-id="1,2,8,27" id="Fill-161" node-id="112" stroke="none" target-height="3.7999878" target-width="6.4000015" target-x="77.38" target-y="256.42"></path><path d="M 108.48 127.52 L 107.98 133.22 L 107.88 134.12 L 107.28 140.32 L 97.98 241.52 L 97.65 242.99 L 97.04 244.23 L 96.15 245.30 L 95.03 246.12 L 93.76 246.62 L 92.28 246.82 L 79.88 246.82 L 78.26 246.59 L 76.89 246.00 L 75.71 245.06 L 74.81 243.84 L 74.27 242.45 L 74.08 240.82 L 74.97 206.78 L 75.48 190.37 L 76.13 174.86 L 77.05 159.68 L 78.28 145.62 L 79.38 136.52 L 94.48 131.82 L 108.48 127.52" fill="#2a77f2" fill-rule="evenodd" group-id="1,2,8,27" id="Fill-162" node-id="113" stroke="none" target-height="119.30001" target-width="34.4" target-x="74.08" target-y="127.52"></path><path d="M 125.18 136.82 L 128.02 161.36 L 131.50 187.01 L 135.46 212.93 L 139.98 239.82 L 140.01 241.36 L 139.62 242.75 L 138.88 243.99 L 137.84 244.95 L 136.57 245.59 L 135.08 245.82 L 119.78 245.82 L 117.99 245.50 L 116.51 244.61 L 115.73 243.75 L 115.19 242.73 L 114.88 241.52 L 98.28 131.02 L 125.18 136.82" fill="#2a77f2" fill-rule="evenodd" group-id="1,2,8,27" id="Fill-163" node-id="114" stroke="none" target-height="114.8" target-width="41.729996" target-x="98.28" target-y="131.02"></path><path d="M 78.38 145.82 L 79.48 136.82 L 94.58 132.12 L 98.58 132.82 L 98.58 132.82 L 99.98 141.92 L 78.38 145.82" fill="#2d54b9" fill-rule="evenodd" group-id="1,2,8,27" id="Fill-164" node-id="115" stroke="none" target-height="13.700012" target-width="21.600006" target-x="78.38" target-y="132.12"></path><path d="M 99.98 141.62 L 98.58 132.62 L 107.98 134.12 L 125.38 136.92 L 107.38 140.32 L 99.98 141.62 L 99.98 141.62" fill="#2d54b9" fill-rule="evenodd" group-id="1,2,8,27" id="Fill-165" node-id="116" stroke="none" target-height="9" target-width="26.799995" target-x="98.58" target-y="132.62"></path><path d="M 107.48 193.82 L 102.68 158.52 L 95.98 157.02 L 96.28 156.02 L 103.48 157.72 L 108.48 193.72 L 107.48 193.82" fill="#102048" fill-rule="evenodd" group-id="1,2,8,27" id="Fill-166" node-id="117" stroke="none" target-height="37.800003" target-width="12.5" target-x="95.98" target-y="156.02"></path><path d="M 138.68 106.12 L 139.80 104.49 L 142.36 100.92 L 145.18 97.43 L 146.48 96.23 L 147.08 96.02 L 147.65 96.50 L 147.64 97.38 L 147.25 98.40 L 146.69 99.39 L 145.98 100.42 L 146.91 99.43 L 149.01 97.32 L 151.30 95.36 L 152.31 94.80 L 152.78 94.82 L 153.00 95.36 L 152.79 96.32 L 151.75 98.26 L 151.08 99.22 L 152.00 98.25 L 153.90 96.63 L 154.88 96.18 L 155.48 96.32 L 155.65 96.80 L 155.45 97.63 L 154.41 99.55 L 153.18 101.27 L 152.58 102.02 L 153.39 100.98 L 155.07 99.19 L 155.96 98.60 L 156.48 98.62 L 156.63 98.99 L 156.47 99.73 L 155.57 101.48 L 154.50 103.11 L 153.98 103.82 L 154.62 103.31 L 155.91 102.56 L 156.52 102.46 L 156.88 102.72 L 156.79 103.31 L 155.94 104.97 L 153.37 108.95 L 150.71 112.73 L 149.48 114.42 L 140.08 115.02 L 138.68 106.12" fill="#ffecdf" fill-rule="evenodd" group-id="1,2,8,27" id="Fill-167" node-id="118" stroke="none" target-height="20.219994" target-width="18.200012" target-x="138.68" target-y="94.8"></path><path d="M 140.58 103.02 L 130.88 114.62 L 129.60 111.87 L 128.28 109.42 L 123.64 111.51 L 121.04 112.90 L 118.33 114.56 L 115.71 116.43 L 113.28 118.52 L 115.10 122.43 L 116.93 126.01 L 118.90 129.35 L 120.80 132.07 L 122.87 134.37 L 124.78 135.82 L 126.51 136.47 L 128.27 136.60 L 130.11 136.22 L 131.90 135.44 L 133.74 134.32 L 135.65 132.81 L 138.31 130.22 L 140.87 127.26 L 143.24 124.15 L 145.25 121.24 L 148.26 116.40 L 149.38 114.42 L 140.58 103.02" fill="#ffecdf" fill-rule="evenodd" group-id="1,2,8,27" id="Fill-168" node-id="119" stroke="none" target-height="33.58001" target-width="36.100006" target-x="113.28" target-y="103.02"></path><path d="M 103.98 92.02 L 104.71 94.42 L 106.72 100.61 L 109.76 109.11 L 113.58 118.42 L 116.02 116.33 L 118.65 114.46 L 121.39 112.80 L 124.01 111.41 L 128.68 109.32 L 125.90 105.16 L 123.18 101.87 L 120.52 99.32 L 117.58 97.05 L 114.92 95.36 L 112.51 94.18 L 108.90 92.87 L 106.41 92.29 L 103.98 92.02" fill="#001e48" fill-rule="evenodd" group-id="1,2,8,27" id="Fill-169" node-id="120" stroke="none" target-height="26.400002" target-width="24.69999" target-x="103.98" target-y="92.02"></path><path d="M 103.58 91.52 L 99.82 92.53 L 96.49 94.00 L 93.52 95.94 L 90.85 98.31 L 88.48 101.01 L 86.40 104.08 L 84.63 107.36 L 83.13 110.83 L 81.88 114.52 L 80.50 120.18 L 79.65 125.87 L 79.29 131.52 L 79.38 136.72 L 84.44 136.40 L 90.35 136.23 L 102.53 136.26 L 113.83 136.58 L 122.15 136.95 L 125.38 137.12 L 124.86 134.00 L 123.22 126.12 L 121.98 121.20 L 120.37 115.71 L 118.46 110.23 L 116.21 104.99 L 114.47 101.63 L 112.61 98.70 L 110.65 96.18 L 108.39 93.99 L 106.05 92.46 L 103.58 91.52 Z" fill="#1f3c88" fill-rule="evenodd" group-id="1,2,8,27" id="Fill-170" node-id="121" stroke="none" target-height="45.6" target-width="46.089996" target-x="79.29" target-y="91.52"></path><path d="M 75.78 123.72 L 77.08 123.03 L 80.22 121.42 L 84.12 119.64 L 87.68 118.40 L 89.10 118.21 L 89.78 118.42 L 90.08 119.00 L 89.87 119.70 L 89.31 120.40 L 88.48 121.15 L 86.80 122.33 L 85.98 122.82 L 87.41 122.47 L 90.60 121.78 L 93.87 121.34 L 95.14 121.43 L 95.58 121.72 L 95.50 122.37 L 94.80 123.21 L 92.81 124.60 L 91.68 125.22 L 92.50 124.93 L 94.33 124.41 L 96.24 124.17 L 96.96 124.33 L 97.28 124.72 L 97.17 125.25 L 96.52 125.89 L 94.43 126.98 L 92.28 127.80 L 91.28 128.12 L 92.62 127.65 L 95.21 127.00 L 96.38 126.98 L 96.88 127.32 L 96.83 127.76 L 96.27 128.34 L 94.42 129.42 L 92.48 130.27 L 91.58 130.62 L 92.49 130.54 L 94.15 130.61 L 94.79 130.87 L 94.98 131.32 L 94.69 131.65 L 93.44 132.24 L 89.84 133.39 L 85.56 134.52 L 81.98 135.38 L 80.48 135.72 L 72.08 132.62 L 75.78 123.72" fill="#ffecdf" fill-rule="evenodd" group-id="1,2,8,27" id="Fill-171" node-id="122" stroke="none" target-height="17.510002" target-width="25.199997" target-x="72.08" target-y="118.21"></path><path d="M 61.08 123.72 L 60.39 125.61 L 59.83 127.55 L 59.31 130.13 L 59.08 132.84 L 59.31 135.58 L 59.80 137.31 L 60.65 138.84 L 61.88 140.22 L 63.33 141.05 L 65.12 141.51 L 67.35 141.57 L 70.80 141.09 L 74.66 140.03 L 78.49 138.62 L 82.06 137.08 L 87.78 134.21 L 90.08 132.92 L 79.58 125.82 L 80.06 121.79 L 80.89 117.93 L 82.08 114.22 L 77.88 112.93 L 74.41 112.16 L 71.14 111.69 L 68.68 111.52 L 66.13 115.07 L 63.60 119.12 L 61.08 123.72" fill="#ffecdf" fill-rule="evenodd" group-id="1,2,8,27" id="Fill-172" node-id="123" stroke="none" target-height="30.05001" target-width="31" target-x="59.08" target-y="111.52"></path><path d="M 103.48 91.52 L 101.35 91.67 L 99.09 92.00 L 95.69 92.77 L 92.04 93.92 L 87.61 95.80 L 84.68 97.33 L 81.55 99.29 L 78.20 101.72 L 75.07 104.40 L 71.87 107.64 L 68.58 111.52 L 71.10 111.70 L 74.35 112.20 L 77.80 112.98 L 81.98 114.22 L 83.40 110.94 L 85.15 107.78 L 87.27 104.72 L 89.77 101.75 L 92.49 99.07 L 95.65 96.47 L 99.30 93.95 L 103.48 91.52" fill="#1f3c88" fill-rule="evenodd" group-id="1,2,8,27" id="Fill-173" node-id="124" stroke="none" target-height="22.700005" target-width="34.9" target-x="68.58" target-y="91.52"></path><path d="M 82.58 114.12 L 81.68 113.82 L 83.57 109.02 L 86.06 104.43 L 89.18 100.02 L 89.98 100.62 L 86.88 105.02 L 84.42 109.51 L 82.58 114.12" fill="#3a6bea" fill-rule="evenodd" group-id="1,2,8,27" id="Fill-174" node-id="125" stroke="none" target-height="14.100006" target-width="8.300003" target-x="81.68" target-y="100.02"></path><path d="M 107.18 108.42 L 107.08 107.52 L 115.28 106.72 L 115.38 107.62 L 107.18 108.42" fill="#527ee9" fill-rule="evenodd" group-id="1,2,8,27" id="Fill-175" node-id="126" stroke="none" target-height="1.699997" target-width="8.299995" target-x="107.08" target-y="106.72"></path><path d="M 66.98 126.52 L 66.68 125.62 L 81.38 120.42 L 81.68 121.32 L 66.98 126.52" fill="#e28b6d" fill-rule="evenodd" group-id="1,2,8,27" id="Fill-176" node-id="127" stroke="none" target-height="6.0999985" target-width="15" target-x="66.68" target-y="120.42"></path><path d="M 127.28 119.42 L 126.58 118.72 L 133.18 111.72 L 133.88 112.32 L 127.28 119.42" fill="#e28b6d" fill-rule="evenodd" group-id="1,2,8,27" id="Fill-177" node-id="128" stroke="none" target-height="7.699997" target-width="7.300003" target-x="126.58" target-y="111.72"></path><path d="M 106.58 82.02 L 106.58 93.22 L 106.42 94.45 L 106.00 95.50 L 105.33 96.41 L 104.46 97.12 L 103.46 97.55 L 102.28 97.72 L 101.11 97.55 L 100.11 97.12 L 99.23 96.41 L 98.57 95.50 L 98.15 94.45 L 97.98 93.22 L 97.98 82.02 L 106.58 82.02" fill="#ffecdf" fill-rule="evenodd" group-id="1,2,8,27" id="Fill-178" node-id="129" stroke="none" target-height="15.700005" target-width="8.599998" target-x="97.98" target-y="82.02"></path><path d="M 106.58 84.02 L 106.58 90.32 L 104.36 89.45 L 102.66 88.28 L 101.27 86.90 L 100.41 85.76 L 99.68 84.52 L 106.58 84.02" fill="#102048" fill-rule="evenodd" group-id="1,2,8,27" id="Fill-179" node-id="130" stroke="none" target-height="6.300003" target-width="6.9000015" target-x="99.68" target-y="84.02"></path><path d="M 109.68 74.52 L 109.91 76.46 L 110.03 78.38 L 110.01 80.76 L 109.72 83.12 L 109.09 85.11 L 108.40 86.21 L 107.48 86.89 L 106.28 87.22 L 104.46 87.09 L 102.81 86.69 L 101.30 86.04 L 99.24 84.79 L 97.80 83.64 L 96.48 82.32 L 96.28 73.82 L 102.08 69.82 L 109.68 74.52" fill="#ffecdf" fill-rule="evenodd" group-id="1,2,8,27" id="Fill-180" node-id="131" stroke="none" target-height="17.400002" target-width="13.75" target-x="96.28" target-y="69.82"></path><path d="M 109.68 74.42 L 108.41 73.61 L 107.10 72.94 L 105.46 72.33 L 103.76 72.06 L 102.18 72.32 L 100.77 72.99 L 99.61 73.83 L 98.69 74.93 L 97.96 76.51 L 97.55 78.41 L 97.38 81.22 L 93.98 80.72 L 93.72 78.98 L 93.62 77.24 L 93.78 75.01 L 94.35 72.80 L 95.50 70.72 L 96.60 69.59 L 98.12 68.69 L 100.18 68.02 L 102.40 67.78 L 104.10 67.92 L 105.42 68.37 L 107.13 69.55 L 108.31 71.07 L 109.15 72.81 L 109.68 74.42" fill="#ffc957" fill-rule="evenodd" group-id="1,2,8,27" id="Fill-181" node-id="132" stroke="none" target-height="13.440002" target-width="16.059998" target-x="93.62" target-y="67.78"></path><path d="M 97.98 79.22 L 98.61 80.43 L 98.81 81.60 L 98.60 82.69 L 97.98 83.52 L 97.05 83.95 L 95.92 83.92 L 94.82 83.45 L 93.78 82.52 L 93.16 81.32 L 92.96 80.15 L 93.17 79.05 L 93.78 78.22 L 94.77 77.80 L 95.88 77.86 L 96.97 78.33 L 97.98 79.22" fill="#ffecdf" fill-rule="evenodd" group-id="1,2,8,27" id="Fill-182" node-id="133" stroke="none" target-height="6.149994" target-width="5.8499985" target-x="92.96" target-y="77.8"></path></g><g node-id="356"><path d="M 399.85 55.37 L 401.27 55.58 L 402.48 56.10 L 403.53 56.94 L 404.35 58.01 L 404.85 59.24 L 405.05 60.67 L 405.05 82.87 L 404.85 84.30 L 404.35 85.53 L 403.53 86.61 L 402.48 87.45 L 401.27 87.97 L 399.85 88.17 L 375.85 88.17 L 361.65 99.27 L 361.65 88.17 L 356.85 88.17 L 355.42 87.97 L 354.21 87.45 L 353.16 86.61 L 352.35 85.53 L 351.84 84.30 L 351.65 82.87 L 351.65 60.67 L 351.84 59.24 L 352.35 58.01 L 353.16 56.94 L 354.21 56.10 L 355.42 55.58 L 356.85 55.37 L 399.85 55.37 Z" fill="#ffc957" fill-rule="evenodd" group-id="1,2,8,28" id="Fill-183" node-id="135" stroke="none" target-height="43.899998" target-width="53.399994" target-x="351.65" target-y="55.37"></path><path d="M 390.85 74.87 L 392.25 74.59 L 393.35 73.82 L 394.07 72.70 L 394.35 71.27 L 394.06 69.85 L 393.31 68.72 L 392.20 67.96 L 390.85 67.67 L 389.44 67.96 L 388.35 68.72 L 387.62 69.85 L 387.35 71.27 L 387.62 72.70 L 388.35 73.82 L 389.44 74.59 L 390.85 74.87 Z" fill="#ffffff" fill-rule="evenodd" group-id="1,2,8,28" id="Fill-184" node-id="136" stroke="none" target-height="7.2000046" target-width="7" target-x="387.35" target-y="67.67"></path><path d="M 378.35 74.87 L 379.75 74.59 L 380.85 73.82 L 381.57 72.70 L 381.85 71.27 L 381.56 69.85 L 380.81 68.72 L 379.70 67.96 L 378.35 67.67 L 376.94 67.96 L 375.85 68.72 L 375.12 69.85 L 374.85 71.27 L 375.13 72.69 L 375.88 73.82 L 376.99 74.59 L 378.35 74.87 Z" fill="#ffffff" fill-rule="evenodd" group-id="1,2,8,28" id="Fill-185" node-id="137" stroke="none" target-height="7.2000046" target-width="7" target-x="374.85" target-y="67.67"></path><path d="M 365.75 74.87 L 367.15 74.59 L 368.25 73.82 L 368.97 72.70 L 369.25 71.27 L 368.96 69.85 L 368.21 68.72 L 367.10 67.96 L 365.75 67.67 L 364.34 67.96 L 363.25 68.72 L 362.52 69.85 L 362.25 71.27 L 362.53 72.69 L 363.28 73.82 L 364.39 74.59 L 365.75 74.87 Z" fill="#ffffff" fill-rule="evenodd" group-id="1,2,8,28" id="Fill-186" node-id="138" stroke="none" target-height="7.2000046" target-width="7" target-x="362.25" target-y="67.67"></path></g></g></g></g></svg>